<?xml version="1.0" encoding="utf-8"?>
<!-- Generator: Adobe Illustrator 16.0.0, SVG Export Plug-In . SVG Version: 6.00 Build 0)  -->
<!DOCTYPE svg PUBLIC "-//W3C//DTD SVG 1.1//EN" "http://www.w3.org/Graphics/SVG/1.1/DTD/svg11.dtd">
<svg version="1.1" id="レイヤー_1" xmlns="http://www.w3.org/2000/svg" xmlns:xlink="http://www.w3.org/1999/xlink" x="0px"
	 y="0px" width="318px" height="32px" viewBox="0 0 318 32" enable-background="new 0 0 318 32" xml:space="preserve">
<g display="none">
	<g display="inline">
		<g>
			<defs>
				<circle id="SVGID_1_" cx="180.626" cy="2.038" r="79.606"/>
			</defs>
			<clipPath id="SVGID_2_">
				<use xlink:href="#SVGID_1_"  overflow="visible"/>
			</clipPath>
			<g clip-path="url(#SVGID_2_)">
				<rect x="70.521" y="-143.933" fill-rule="evenodd" clip-rule="evenodd" fill="#F3F4F4" width="253.187" height="253.188"/>
				<rect x="160.554" y="18.105" fill-rule="evenodd" clip-rule="evenodd" fill="#7FC7ED" width="32.762" height="32.655"/>
				<rect x="126.347" y="-77.567" fill-rule="evenodd" clip-rule="evenodd" fill="#7FC7ED" width="28.398" height="24.053"/>
				<rect x="304.718" y="87.733" fill-rule="evenodd" clip-rule="evenodd" fill="#7FC7ED" width="18.99" height="21.521"/>
				<rect x="126.195" y="46.837" fill-rule="evenodd" clip-rule="evenodd" fill="#83CDAC" width="32.914" height="26.543"/>
				<rect x="261.679" y="-143.933" fill-rule="evenodd" clip-rule="evenodd" fill="#7FC7ED" width="36.711" height="27.85"/>
				<rect x="214.837" y="-109.753" fill-rule="evenodd" clip-rule="evenodd" fill="#83CDAC" width="83.553" height="102.539"/>
				<rect x="70.521" y="-109.753" fill-rule="evenodd" clip-rule="evenodd" fill="#83CDAC" width="17.722" height="121.529"/>
				<rect x="127.488" y="87.733" fill-rule="evenodd" clip-rule="evenodd" fill="#83CDAC" width="26.583" height="21.521"/>
				<rect x="88.243" y="-80.637" fill-rule="evenodd" clip-rule="evenodd" fill="#ECECEC" width="120.266" height="2.531"/>
				<rect x="88.243" y="-16.075" fill-rule="evenodd" clip-rule="evenodd" fill="#ECECEC" width="72.159" height="2.532"/>
				<rect x="70.521" y="-131.275" fill-rule="evenodd" clip-rule="evenodd" fill="#ECECEC" width="112.667" height="2.534"/>
				<rect x="70.521" y="33.296" fill-rule="evenodd" clip-rule="evenodd" fill="#ECECEC" width="56.967" height="2.535"/>
				<rect x="304.718" y="-90.765" fill-rule="evenodd" clip-rule="evenodd" fill="#ECECEC" width="18.99" height="2.532"/>
				<rect x="304.718" y="-18.606" fill-rule="evenodd" clip-rule="evenodd" fill="#ECECEC" width="18.99" height="2.531"/>
				<rect x="304.718" y="13.041" fill-rule="evenodd" clip-rule="evenodd" fill="#ECECEC" width="18.99" height="2.532"/>
				<rect x="70.521" y="0.772" fill-rule="evenodd" clip-rule="evenodd" fill="#ECECEC" width="89.88" height="2.531"/>
				<rect x="199.646" y="26.968" fill-rule="evenodd" clip-rule="evenodd" fill="#ECECEC" width="98.744" height="2.531"/>
				<rect x="192.06" y="-143.933" fill-rule="evenodd" clip-rule="evenodd" fill="#ECECEC" width="2.531" height="115.199"/>
				<rect x="180.657" y="87.733" fill-rule="evenodd" clip-rule="evenodd" fill="#ECECEC" width="2.531" height="21.521"/>
				<rect x="266.739" y="26.968" fill-rule="evenodd" clip-rule="evenodd" fill="#ECECEC" width="2.533" height="54.436"/>
				<rect x="70.521" y="-116.083" fill-rule="evenodd" clip-rule="evenodd" fill="#FFFFFF" width="253.187" height="6.33"/>
				<rect x="70.521" y="15.196" fill-rule="evenodd" clip-rule="evenodd" fill="#FFFFFF" width="89.88" height="6.329"/>
				<rect x="159.517" y="-7.214" fill-rule="evenodd" clip-rule="evenodd" fill="#FFFFFF" width="145.201" height="6.329"/>
				<rect x="125.31" y="46.142" fill-rule="evenodd" clip-rule="evenodd" fill="#FFFFFF" width="145.201" height="6.328"/>
				<rect x="70.521" y="81.403" fill-rule="evenodd" clip-rule="evenodd" fill="#FFFFFF" width="253.187" height="6.33"/>
				<rect x="101.02" y="-35.063" fill-rule="evenodd" clip-rule="evenodd" fill="#FFFFFF" width="222.688" height="6.329"/>
				<rect x="88.243" y="-143.933" fill-rule="evenodd" clip-rule="evenodd" fill="#FFFFFF" width="6.331" height="253.188"/>
				<rect x="298.39" y="-143.933" fill-rule="evenodd" clip-rule="evenodd" fill="#FFFFFF" width="6.328" height="253.188"/>
				<rect x="154.071" y="-143.933" fill-rule="evenodd" clip-rule="evenodd" fill="#FFFFFF" width="6.33" height="253.188"/>
				<rect x="208.509" y="-116.083" fill-rule="evenodd" clip-rule="evenodd" fill="#FFFFFF" width="6.328" height="115.198"/>
				<rect x="193.315" y="-0.885" fill-rule="evenodd" clip-rule="evenodd" fill="#FFFFFF" width="6.33" height="88.618"/>
				<rect x="255.347" y="-143.933" fill-rule="evenodd" clip-rule="evenodd" fill="#FFFFFF" width="6.332" height="115.199"/>
				<rect x="114.829" y="-143.933" fill-rule="evenodd" clip-rule="evenodd" fill="#FEE379" width="12.659" height="253.188"/>
				<rect x="235.093" y="-143.933" fill-rule="evenodd" clip-rule="evenodd" fill="#FEE379" width="12.658" height="253.188"/>
				<rect x="70.521" y="-89.139" fill-rule="evenodd" clip-rule="evenodd" fill="#FEE379" width="253.187" height="12.659"/>
				<rect x="97.842" y="13.652" fill-rule="evenodd" clip-rule="evenodd" fill="#FEE379" width="196.094" height="12.659"/>
				<path opacity="0.3" fill="#D0D0D0" d="M165.231,20.125c6.162-5.87,19.584-14.223,31.332-18.344
					c6.4-2.242,11.002-4.995,12.91-6.972c6.619-6.86,5.299-14.731-2.949-17.582c-8.25-2.848-20.309,0.403-26.93,7.266
					c-1.908,1.975-3.586,5.739-3.637,10.174c-0.088,8.146-5.467,19.276-10.881,25.403L165.231,20.125z"/>
				<g>
					
						<path fill="#DE5764" stroke="#EC5C6A" stroke-width="1.2659" stroke-linecap="round" stroke-linejoin="round" stroke-miterlimit="10" d="
						M173.296,20.055c0.545-10.572,6.369-27.745,14.814-38.553c4.6-5.89,6.717-11.629,6.717-15.112
						c0-12.094-9.689-21.899-21.643-21.899s-21.643,9.806-21.643,21.899c0,3.483,2.117,9.223,6.719,15.112
						c8.443,10.808,14.27,27.98,14.812,38.553H173.296z"/>
				</g>
				
					<circle fill-rule="evenodd" clip-rule="evenodd" fill="#FFFFFF" stroke="#EC5C6A" stroke-width="0.633" stroke-linecap="round" stroke-linejoin="round" stroke-miterlimit="10" cx="173.184" cy="-34.12" r="7.911"/>
			</g>
		</g>
		<g>
			<g>
				<g>
					<polygon fill="#F22613" points="38.321,168.956 11.568,142.167 77.316,63.175 117.348,103.188 					"/>
				</g>
				<g>
					<polygon fill="#F22613" points="98.581,103.911 76.595,81.94 114.746,43.765 136.731,65.769 					"/>
				</g>
			</g>
			<g>
				<path fill="#F22613" d="M91.668,91.001C67.888,67.22,54.819,35.63,54.819,2.034c-0.018-69.389,56.426-125.833,125.797-125.816
					c33.613,0,65.203,13.069,88.965,36.849c23.748,23.764,36.852,55.354,36.852,88.967c0,69.363-56.443,125.797-125.816,125.824
					C147.003,127.831,115.413,114.737,91.668,91.001z M233.931-51.28c-14.248-14.246-33.174-22.091-53.332-22.108
					c-41.563,0.018-75.386,33.843-75.386,75.423c0,20.139,7.845,39.064,22.109,53.312c14.212,14.24,33.156,22.074,53.312,22.092
					c41.547-0.018,75.371-33.832,75.387-75.404C256.021-18.098,248.159-37.05,233.931-51.28z"/>
			</g>
		</g>
	</g>
	<g display="inline">
		<path fill="#FFFFFF" d="M72.056,25.366l2.262,9.328c0.589,2.43-2.618,3.209-3.208,0.777L68.46,24.54
			c-0.212-0.875,0.329-1.828,1.179-2.139l18.61-4.512c6.548-1.641,12.807,3.377,14.361,9.791c1.497,6.17-1.663,12.234-7.412,13.988
			c-2.2,0.688-3.497-2.754-0.92-3.582c4.351-1.365,6.066-5.537,5.076-9.617c-1.143-4.715-5.677-8.348-10.293-7.229L72.056,25.366z"
			/>
		<path fill="#FFFFFF" d="M71.06,7.526c-0.675-1.682-0.844-3.49-0.709-5.387c0.178-2.844,1.222-6.051,4.249-7.717l-1.897-0.084
			c-1.049-0.047-1.769-0.73-1.717-1.879c0.048-1.1,0.832-1.816,1.881-1.768l22.174,0.994c1.099,0.049,1.765,0.83,1.715,1.928
			c-0.051,1.15-0.779,1.768-1.878,1.719L92.48-4.774c2.832,1.578,4.315,5.348,4.183,8.293c-0.107,2.398-0.878,5.066-2.47,7.098
			c-2.768,3.68-7.1,5.436-11.988,5.066c-5.04-0.326-9.56-3.332-11.193-8.209L71.06,7.526z M85.788-5.075l-3.946-0.176
			c-4.944-0.223-7.646,3.109-8.047,7.596c-0.209,3.543,1.528,7.225,4.961,8.779c1.029,0.496,2.366,0.807,3.662,0.916
			c3.242,0.244,6.286-0.67,8.654-3.266c1.215-1.447,1.896-3.219,2.129-5.061C93.407-0.88,90.771-4.601,85.788-5.075z"/>
		<path fill="#FFFFFF" d="M98.448-22.835c-1.125,3.158-3.487,5.766-6.487,6.291l10.126,3.605c2.167,0.773,0.942,4.211-1.225,3.439
			l-29.25-10.422c-1.036-0.369-1.414-1.246-1.027-2.33c0.386-1.084,1.183-1.383,2.219-1.014l2.214,0.789
			c-2.349-2.643-2.399-6.375-1.392-9.201c0.52-1.461,1.373-2.961,2.505-4.203l-0.064,0.031c3.949-4.381,9.535-5.309,14.948-3.221
			C97.637-36.499,100.965-29.899,98.448-22.835z M81.505-20.271l3.721,1.326c4.145,1.477,8.206-0.688,9.922-4.904
			c1.191-3.346,0.593-7.328-2.17-9.852c-0.855-0.729-2.026-1.465-3.234-1.947c-3.044-1.139-6.223-1.156-9.249,0.631
			c-1.57,0.98-2.74,2.475-3.519,4.215C75.449-26.517,76.889-21.915,81.505-20.271z"/>
		<path fill="#FFFFFF" d="M86.21-55.274c0.369-1.775,1.23-3.375,2.392-4.879c1.723-2.271,4.368-4.363,7.812-4.074l-1.534-1.123
			c-0.847-0.619-1.069-1.586-0.39-2.514c0.649-0.889,1.697-1.051,2.545-0.432l17.917,13.105c0.888,0.65,1.01,1.668,0.36,2.557
			c-0.678,0.928-1.627,1.041-2.515,0.391l-1.937-1.418c1.485,2.883,0.632,6.844-1.109,9.225c-1.417,1.936-3.535,3.732-5.986,4.543
			c-4.342,1.531-8.923,0.596-12.789-2.42c-4.018-3.061-6.117-8.066-4.777-13.031L86.21-55.274z M105.453-57.616l-3.188-2.332
			c-3.996-2.922-8.09-1.643-10.908,1.871c-2.137,2.836-2.728,6.863-0.73,10.059c0.582,0.982,1.524,1.982,2.544,2.791
			c2.564,1.998,5.605,2.924,9.015,2.072c1.814-0.533,3.36-1.631,4.573-3.037C109.476-49.903,109.34-54.462,105.453-57.616z"/>
		<path fill="#FFFFFF" d="M125.34-80.269c-2.766-3.676-7.646-4.008-10.882-1.574c-3.875,2.916-5.107,8.848-1.831,13.203l6.973,9.268
			c0.661,0.881,0.532,1.789-0.386,2.482c-0.919,0.691-1.909,0.623-2.57-0.256l-13.466-17.9c-1.383-1.838,1.464-4.043,2.907-2.125
			l1.863,2.477c-0.756-3.998,1.389-7.551,4.506-9.895c4.635-3.486,11.474-3.627,15.802,2.127l7.966,10.586
			c0.66,0.881,0.532,1.791-0.387,2.482c-0.879,0.66-1.869,0.592-2.53-0.287L125.34-80.269z"/>
		<path fill="#FFFFFF" d="M134.673-103.257c-0.919-2.325,2.588-3.656,3.486-1.377l10.98,27.809c0.846,2.141-2.606,3.609-3.488,1.377
			L134.673-103.257z"/>
		<path fill="#FFFFFF" d="M171.714-95.771c-0.727-4.541-4.885-7.116-8.883-6.477c-4.789,0.766-8.648,5.434-7.789,10.815
			l1.834,11.451c0.174,1.088-0.367,1.832-1.502,2.014s-1.979-0.344-2.152-1.428l-3.537-22.116c-0.363-2.271,3.182-2.889,3.562-0.519
			l0.488,3.06c1.201-3.888,4.758-6.026,8.607-6.642c5.727-0.916,11.838,2.155,12.975,9.265l2.094,13.081
			c0.174,1.086-0.365,1.832-1.5,2.014c-1.086,0.174-1.93-0.35-2.104-1.438L171.714-95.771z"/>
		<path fill="#FFFFFF" d="M194.112-105.929c3.322,0.442,6.359,2.258,7.496,5.083l1.312-9.862c0.303-2.28,3.92-1.799,3.617,0.48
			l-3.982,29.934c-0.146,1.092-0.926,1.643-2.066,1.492c-1.139-0.152-1.598-0.869-1.453-1.961l0.311-2.328
			c-2.094,2.85-5.734,3.676-8.709,3.279c-1.537-0.205-3.182-0.725-4.633-1.574l0.043,0.057c-5.104-2.949-7.178-8.219-6.264-13.948
			C180.919-102.288,186.679-106.918,194.112-105.929z M200.151-89.894l0.52-3.916c0.58-4.361-2.381-7.883-6.863-8.681
			c-3.52-0.468-7.289,0.947-9.182,4.176c-0.535,0.987-1.01,2.286-1.23,3.568c-0.479,3.214,0.166,6.327,2.545,8.913
			c1.287,1.33,2.992,2.164,4.855,2.562C195.306-82.669,199.505-85.036,200.151-89.894z"/>
		<path fill="#FFFFFF" d="M207.421-81.501c-0.975-3.336-0.537-6.646,1.127-10.01c2.719-4.866,7.582-7.789,13.238-6.964
			c1.238,0.169,2.512,0.628,3.652,1.138c1.098,0.489,2.152,1.068,3.197,1.918c4.346,3.638,5.576,9.223,3.707,14.522
			c-1.346,3.508-3.564,6.023-6.652,7.547c-3.441,1.695-7.359,1.645-10.969,0.035C211.069-74.944,208.458-77.808,207.421-81.501z
			 M224.009-94.252c-0.869-0.388-1.797-0.638-2.564-0.761c-4.285-0.706-8.111,1.857-9.943,5.969
			c-0.918,2.055-1.236,4.486-0.58,6.695c0.744,2.631,2.676,4.807,5.188,5.928c2.467,1.1,5.506,1.033,7.92-0.082
			c1.973-0.98,3.68-2.846,4.559-4.811c1.854-4.156,1.223-8.764-2.209-11.499C225.728-93.322,224.876-93.866,224.009-94.252z"/>
		<path fill="#FFFFFF" d="M230.835-70.228c0.004-3.477,1.354-6.529,3.898-9.289c3.977-3.906,9.465-5.342,14.66-2.959
			c1.141,0.512,2.234,1.311,3.186,2.119c0.914,0.779,1.764,1.633,2.527,2.742c3.146,4.711,2.758,10.42-0.529,14.977
			c-2.277,2.988-5.113,4.777-8.506,5.369c-3.779,0.66-7.525-0.492-10.535-3.051C232.491-62.911,230.79-66.394,230.835-70.228z
			 M250.339-77.798c-0.725-0.615-1.545-1.115-2.246-1.449c-3.912-1.883-8.307-0.5-11.223,2.928
			c-1.457,1.713-2.447,3.957-2.438,6.262c-0.027,2.734,1.213,5.365,3.307,7.148c2.059,1.748,4.996,2.541,7.623,2.15
			c2.17-0.387,4.334-1.697,5.727-3.336c2.949-3.465,3.641-8.062,1.117-11.654C251.728-76.419,251.062-77.181,250.339-77.798z"/>
		<path fill="#FFFFFF" d="M266.153-59.472c3.648-0.691,6.146,1.197,7.832,3.494c0.68,0.928,0.641,1.887-0.289,2.568
			c-0.887,0.648-1.812,0.398-2.494-0.527c-3.043-4.154-7.65-3.504-11.723-0.52l-9.113,6.682c-0.848,0.619-1.914,0.35-2.477-0.418
			c-0.648-0.887-0.527-1.904,0.318-2.525l17.863-13.096c1.773-1.301,4.033,1.445,2.098,2.863L266.153-59.472z"/>
		<path fill="#FFFFFF" d="M293.786-18.681c2.066,0.543,2.197,2.918,0.197,3.559l-27.42,8.809c-2.285,0.734-3.4-2.74-1.117-3.477
			l21.662-6.957l-18.307-4.832c-1.625-0.32-2.205-2.129-1.055-3.287l12.02-14.572l-21.613,6.941c-2.285,0.732-3.4-2.742-1.117-3.475
			l27.422-8.809c2.047-0.658,3.305,1.459,1.898,2.963l-14.361,17.426L293.786-18.681z"/>
		<path fill="#FFFFFF" d="M290.571,2.485c0.729,1.658,0.955,3.463,0.883,5.361c-0.086,2.85-1.027,6.086-3.998,7.85l1.9,0.023
			c1.049,0.014,1.791,0.672,1.777,1.822c-0.014,1.1-0.773,1.84-1.824,1.826l-22.195-0.275c-1.1-0.014-1.789-0.773-1.775-1.871
			c0.014-1.15,0.723-1.791,1.82-1.779l2.4,0.031c-2.881-1.486-4.486-5.207-4.447-8.154c0.029-2.4,0.713-5.092,2.238-7.172
			c2.646-3.768,6.92-5.664,11.816-5.455c5.049,0.164,9.662,3.021,11.453,7.844L290.571,2.485z M276.259,15.556l3.949,0.049
			c4.949,0.062,7.541-3.355,7.797-7.852c0.094-3.549-1.76-7.172-5.242-8.615c-1.045-0.463-2.391-0.729-3.691-0.795
			c-3.246-0.141-6.26,0.871-8.543,3.543c-1.168,1.484-1.789,3.277-1.963,5.125C268.509,11.61,271.263,15.245,276.259,15.556z"/>
		<path fill="#FFFFFF" d="M261.737,33.185c1.078-3.174,3.402-5.816,6.395-6.383l-10.182-3.459c-2.178-0.742-1.004-4.197,1.176-3.459
			l29.404,9.992c1.041,0.354,1.432,1.225,1.062,2.314c-0.371,1.088-1.164,1.4-2.205,1.045l-2.227-0.756
			c2.389,2.609,2.494,6.342,1.529,9.182c-0.498,1.469-1.33,2.98-2.443,4.24l0.062-0.031c-3.885,4.438-9.457,5.449-14.9,3.441
			C262.751,46.837,259.323,40.286,261.737,33.185z M278.644,30.372l-3.74-1.271c-4.168-1.416-8.197,0.807-9.85,5.051
			c-1.145,3.361-0.486,7.336,2.314,9.818c0.865,0.717,2.049,1.436,3.262,1.9c3.062,1.094,6.242,1.064,9.24-0.77
			c1.557-1.002,2.703-2.514,3.457-4.264C284.792,36.526,283.282,31.948,278.644,30.372z"/>
	</g>
</g>
<g display="none">
	<path display="inline" fill="#221714" d="M296.163-135.958c11.323,0,20.536,9.213,20.536,20.537v275.767
		c0,11.323-9.213,20.536-20.536,20.536H21.537C10.213,180.881,1,171.668,1,160.345v-275.767c0-11.324,9.213-20.537,20.537-20.537
		H296.163 M296.163-136.958H21.537C9.642-136.958,0-127.316,0-115.422v275.767c0,11.895,9.642,21.536,21.537,21.536h274.626
		c11.895,0,21.536-9.642,21.536-21.536v-275.767C317.699-127.316,308.058-136.958,296.163-136.958L296.163-136.958z"/>
</g>
<g>
	<g>
		<g>
			<path d="M17.411,1.899H8.937c-0.863,0-0.863-1.237,0-1.237h9c0.3,0,0.562,0.3,0.601,0.637v15.188
				c0.074,6.638-8.288,10.875-14.214,7.275c-2.325-1.424-3.75-3.862-3.862-6.375c0-0.713,1.237-0.938,1.274,0
				c0.113,2.1,1.312,4.2,3.188,5.325c5.213,3.112,12.563-0.6,12.488-6.226V1.899z"/>
			<path d="M32.089,5.2c1.611,0.038,3.149,0.413,4.5,1.2c1.237,0.825,2.175,1.987,2.737,3.487V6.1c0-0.413,0.226-0.676,0.638-0.676
				c0.413,0,0.675,0.263,0.675,0.676v17.963c0,0.412-0.262,0.674-0.675,0.674c-0.412,0-0.638-0.262-0.638-0.674v-3.788
				c-0.562,1.5-1.5,2.662-2.737,3.487c-2.363,1.389-5.363,1.727-8.213,0.562c-4.05-1.649-6.076-5.362-5.963-9.75
				c0.112-3.788,2.138-7.275,5.7-8.663C29.351,5.387,30.663,5.162,32.089,5.2z M39.326,16.713V13.45
				c-0.149-2.738-1.425-4.988-3.9-6.188c-1.087-0.487-2.175-0.712-3.337-0.75c-3.188-0.037-6.413,1.65-7.688,4.763
				c-0.412,0.975-0.638,2.175-0.675,3.263c-0.112,2.888,0.862,5.55,3.3,7.5c1.313,1.013,2.926,1.576,4.613,1.688
				c1.312,0.037,2.55-0.262,3.787-0.825C37.901,21.701,39.177,19.451,39.326,16.713z"/>
			<path d="M54.188,24.962c-3.113-0.074-6.001-1.574-7.238-4.499v10.838c0,0.412-0.225,0.674-0.638,0.674s-0.676-0.262-0.676-0.674
				V6.024c0-0.412,0.263-0.675,0.676-0.675s0.638,0.263,0.638,0.675v3.713c0.562-1.5,1.5-2.513,2.738-3.337
				c2.361-1.388,5.361-1.725,8.212-0.563c4.051,1.65,6.075,5.363,5.963,9.75c-0.112,3.789-2.137,7.276-5.7,8.664
				C56.925,24.774,55.612,25.001,54.188,24.962z M46.949,13.45v3.263c0.262,3.863,3.037,6.788,7.238,6.938
				c3.188,0.037,6.412-1.65,7.688-4.764c0.413-0.975,0.638-2.174,0.675-3.263c0.112-2.887-0.862-5.549-3.301-7.5
				c-1.312-1.012-2.924-1.575-4.612-1.687C53.324,6.4,52.087,6.7,50.849,7.262C48.374,8.462,47.099,10.712,46.949,13.45z"/>
			<path d="M76.136,5.2c1.612,0.038,3.149,0.413,4.5,1.2c1.237,0.825,2.175,1.987,2.737,3.487V6.1c0-0.413,0.226-0.676,0.638-0.676
				s0.675,0.263,0.675,0.676v17.963c0,0.412-0.263,0.674-0.675,0.674s-0.638-0.262-0.638-0.674v-3.788
				c-0.562,1.5-1.5,2.662-2.737,3.487c-2.363,1.389-5.363,1.727-8.213,0.562c-4.051-1.649-6.076-5.362-5.964-9.75
				c0.113-3.788,2.139-7.275,5.701-8.663C73.397,5.387,74.71,5.162,76.136,5.2z M83.373,16.713V13.45
				c-0.15-2.738-1.425-4.988-3.9-6.188c-1.087-0.487-2.175-0.712-3.337-0.75c-3.188-0.037-6.413,1.65-7.688,4.763
				c-0.412,0.975-0.638,2.175-0.675,3.263c-0.113,2.888,0.862,5.55,3.3,7.5c1.312,1.013,2.926,1.576,4.613,1.688
				c1.312,0.037,2.55-0.262,3.787-0.825C81.948,21.701,83.223,19.451,83.373,16.713z"/>
			<path d="M106.522,13.413c0-4.875-4.537-7.951-8.964-6.789c-3.862,0.975-6.45,4.613-6.562,8.551v8.962
				c0,0.412-0.225,0.676-0.638,0.676c-0.412,0-0.675-0.264-0.675-0.676V6.024c0-0.337,0.263-0.637,0.675-0.637
				c0.413,0,0.638,0.262,0.638,0.675v5.175c0.863-3.15,3.45-5.137,6.15-5.85c4.987-1.275,10.688,1.688,10.688,8.026v10.725
				c0,0.412-0.225,0.676-0.638,0.676c-0.412,0-0.675-0.264-0.675-0.676V13.413z"/>
			<path d="M123.551,1.149c0-0.938,1.351-0.938,1.351,0v22.764c0,0.861-1.351,0.861-1.351,0V1.149z"/>
			<path d="M147.021,13.413c0-4.875-4.537-7.951-8.963-6.789c-3.863,0.975-6.451,4.613-6.563,8.551v8.962
				c0,0.412-0.225,0.676-0.638,0.676c-0.412,0-0.675-0.264-0.675-0.676V6.024c0-0.337,0.263-0.637,0.675-0.637
				c0.413,0,0.638,0.262,0.638,0.675v5.175c0.863-3.15,3.45-5.137,6.15-5.85c4.988-1.275,10.688,1.688,10.688,8.026v10.725
				c0,0.412-0.224,0.676-0.637,0.676c-0.412,0-0.675-0.264-0.675-0.676V13.413z"/>
			<path d="M161.63,5.2c1.612,0.038,3.149,0.413,4.499,1.2c1.238,0.825,2.176,1.837,2.738,3.337V0.7
				c0-0.413,0.225-0.676,0.637-0.676s0.675,0.263,0.675,0.676v23.364c0,0.412-0.263,0.674-0.675,0.674s-0.637-0.262-0.637-0.674
				v-3.713c-0.562,1.5-1.5,2.587-2.738,3.412c-2.363,1.389-5.362,1.727-8.213,0.562c-4.049-1.649-6.075-5.362-5.963-9.75
				c0.113-3.788,2.138-7.275,5.701-8.663C158.891,5.387,160.204,5.162,161.63,5.2z M168.867,16.713V13.45
				c-0.15-2.738-1.425-4.988-3.9-6.188c-1.088-0.487-2.175-0.712-3.337-0.75c-3.188-0.037-6.413,1.65-7.689,4.763
				c-0.412,0.975-0.637,2.175-0.674,3.263c-0.113,2.888,0.861,5.55,3.3,7.5c1.312,1.013,2.925,1.576,4.612,1.688
				c1.312,0.037,2.55-0.262,3.788-0.825C167.442,21.701,168.717,19.451,168.867,16.713z"/>
			<path d="M176.145,21.476c-1.649-1.988-2.4-4.351-2.25-7.163c0.338-4.013,2.813-7.688,6.862-8.813c1.726-0.45,3.788-0.487,5.663,0
				c4.051,1.125,6.562,4.801,6.901,8.813c0.149,2.812-0.601,5.175-2.251,7.163c-1.837,2.175-4.5,3.337-7.463,3.337
				S177.981,23.651,176.145,21.476z M181.207,6.775c-5.812,1.537-7.837,9.3-4.013,13.875c1.538,1.838,3.901,2.888,6.413,2.888
				c2.551,0,4.95-1.05,6.488-2.888c3.825-4.575,1.725-12.338-4.089-13.875C184.508,6.4,182.745,6.362,181.207,6.775z"/>
			<path d="M198.006,21.476c-1.649-1.988-2.4-4.351-2.25-7.163c0.339-4.013,2.813-7.688,6.863-8.813c1.726-0.45,3.787-0.487,5.663,0
				c4.051,1.125,6.563,4.801,6.9,8.813c0.151,2.812-0.601,5.175-2.249,7.163c-1.838,2.175-4.501,3.337-7.464,3.337
				C202.508,24.813,199.845,23.651,198.006,21.476z M203.069,6.775c-5.812,1.537-7.838,9.3-4.013,13.875
				c1.537,1.838,3.9,2.888,6.413,2.888c2.55,0,4.95-1.05,6.488-2.888c3.825-4.575,1.725-12.338-4.088-13.875
				C206.369,6.4,204.606,6.362,203.069,6.775z"/>
			<path d="M220.233,10.188c0.825-2.85,3.675-4.8,6.788-4.8c0.412,0,0.674,0.225,0.674,0.637c0,0.413-0.262,0.638-0.674,0.638
				c-4.801,0-6.788,4.087-6.788,8.625v8.665c0,0.41-0.301,0.674-0.639,0.674c-0.411,0-0.675-0.264-0.675-0.674V6.024
				c0-0.337,0.264-0.637,0.675-0.637c0.338,0,0.639,0.3,0.639,0.637V10.188z"/>
			<path d="M263.175,0.962c0.413-0.638,1.237-0.45,1.237,0.3v22.69c0,0.861-1.274,0.9-1.274,0V3.287l-9.675,15.189
				c-0.301,0.562-1.014,0.562-1.313,0l-9.675-15.114v20.59c0,0.9-1.276,0.861-1.276,0V1.262c0-0.75,0.825-0.938,1.2-0.3
				L252.824,17.2L263.175,0.962z"/>
			<path d="M278.208,5.2c1.612,0.038,3.15,0.413,4.501,1.2c1.236,0.825,2.175,1.987,2.737,3.487V6.1
				c0-0.413,0.226-0.676,0.639-0.676c0.412,0,0.674,0.263,0.674,0.676v17.963c0,0.412-0.262,0.674-0.674,0.674
				c-0.413,0-0.639-0.262-0.639-0.674v-3.788c-0.562,1.5-1.501,2.662-2.737,3.487c-2.362,1.389-5.363,1.727-8.213,0.562
				c-4.051-1.649-6.075-5.362-5.964-9.75c0.113-3.788,2.139-7.275,5.701-8.663C275.472,5.387,276.783,5.162,278.208,5.2z
				 M285.446,16.713V13.45c-0.149-2.738-1.426-4.988-3.9-6.188c-1.087-0.487-2.176-0.712-3.338-0.75
				c-3.188-0.037-6.413,1.65-7.688,4.763c-0.412,0.975-0.638,2.175-0.675,3.263c-0.112,2.888,0.863,5.55,3.3,7.5
				c1.312,1.013,2.925,1.576,4.613,1.688c1.312,0.037,2.551-0.262,3.787-0.825C284.021,21.701,285.297,19.451,285.446,16.713z"/>
		</g>
	</g>
	<g>
		<path fill="#ECECEC" d="M298.144,16.906c0.887,3.92,4.787,6.379,8.706,5.488c3.918-0.886,6.376-4.781,5.485-8.703
			c0-0.005-0.002-0.013-0.002-0.017l-14.192,3.215C298.142,16.895,298.142,16.9,298.144,16.906z"/>
		<path fill="#E0DFDF" d="M303.635,8.203c-3.913,0.887-6.37,4.773-5.494,8.686l14.192-3.215
			C311.436,9.765,307.549,7.317,303.635,8.203z"/>
		<g>
			<path fill="#FFFFFF" d="M306.866,19.459c0.084,0.338-0.325,0.822-1.233,1.067c-0.447,0.118-1.013,0.165-1.632,0.069
				c-0.613-0.098-1.28-0.325-1.895-0.708c-0.613-0.392-1.105-0.894-1.458-1.408c-0.349-0.517-0.553-1.045-0.639-1.501
				c-0.171-0.924,0.087-1.504,0.429-1.573c0.37-0.078,0.768,0.296,1.257,0.754c0.486,0.467,1.083,1.01,1.823,1.484
				c0.747,0.464,1.495,0.767,2.127,1.006C306.271,18.895,306.778,19.094,306.866,19.459z"/>
		</g>
	</g>
	<g>
		<g>
			<polygon fill="#F22613" points="291.332,31.618 288.717,29.001 295.144,21.277 299.057,25.188 			"/>
		</g>
		<g>
			
				<rect x="296.492" y="19.683" transform="matrix(0.707 0.7072 -0.7072 0.707 103.0945 -204.2106)" fill="#F22613" width="3.039" height="5.275"/>
		</g>
	</g>
	<g>
		<path fill="#F22613" d="M296.546,23.997c-2.323-2.324-3.602-5.411-3.602-8.695c-0.002-6.783,5.516-12.3,12.297-12.299
			c3.285,0,6.373,1.278,8.695,3.602c2.321,2.322,3.603,5.411,3.603,8.697c0,6.78-5.517,12.297-12.298,12.299
			C301.955,27.599,298.867,26.317,296.546,23.997z M310.451,10.09c-1.392-1.392-3.242-2.16-5.212-2.16
			c-4.062,0-7.369,3.307-7.369,7.372c0,1.968,0.767,3.818,2.161,5.21c1.389,1.392,3.24,2.158,5.212,2.16
			c4.061-0.002,7.367-3.308,7.369-7.371C312.612,13.333,311.844,11.481,310.451,10.09z"/>
	</g>
</g>
</svg>
