<?xml version="1.0" encoding="utf-8"?>
<!-- Generator: Adobe Illustrator 19.0.0, SVG Export Plug-In . SVG Version: 6.00 Build 0)  -->
<svg version="1.1" id="レイヤー_1" xmlns="http://www.w3.org/2000/svg" xmlns:xlink="http://www.w3.org/1999/xlink" x="0px"
	 y="0px" viewBox="0 0 35.9 38.9" style="enable-background:new 0 0 35.9 38.9;" xml:space="preserve">
<g id="XMLID_59_">
	<path id="XMLID_113_" d="M26.3,6.9H9.6c-0.4,0-0.7-0.3-0.7-0.7V0.8c0-0.4,0.3-0.7,0.7-0.7h16.8c0.4,0,0.7,0.3,0.7,0.7v5.5
		C27,6.6,26.7,6.9,26.3,6.9z"/>
	<g id="XMLID_78_">
		<path id="XMLID_112_" d="M14.3,25c0-1.1,0.5-2.2,1.4-2.8c-1.9-0.4-3.6-1.3-5-2.5C4.5,23,0.2,30.3,0,38.8h14L15.9,28
			C14.9,27.4,14.3,26.3,14.3,25z"/>
		<path id="XMLID_111_" d="M16.5,25c0,0.8,0.6,1.4,1.4,1.4c0.8,0,1.4-0.6,1.4-1.4c0-0.8-0.6-1.4-1.4-1.4
			C17.2,23.7,16.5,24.3,16.5,25z"/>
		<path id="XMLID_94_" d="M8.9,11.3c0,5,4.1,9.1,9.1,9.1c5,0,9.1-4.1,9.1-9.1c0-0.9-0.1-1.7-0.3-2.5H9.2C9,9.7,8.9,10.5,8.9,11.3z"
			/>
		<polygon id="XMLID_91_" points="16.2,38.8 19.6,38.8 17.9,29.1 		"/>
		<path id="XMLID_84_" d="M25.1,19.8c-1.4,1.2-3.1,2.1-5,2.5c0.8,0.7,1.4,1.7,1.4,2.8c0,1.2-0.6,2.3-1.5,3l1.9,10.8h14
			C35.7,30.3,31.3,23,25.1,19.8z M31.9,33.9c0,0.6-0.5,1.1-1.1,1.1h-5.9c-0.6,0-1.1-0.5-1.1-1.1c0-0.6,0.5-1.1,1.1-1.1h5.9
			C31.4,32.8,31.9,33.3,31.9,33.9z"/>
	</g>
</g>
<g id="XMLID_336_">
</g>
<g id="XMLID_337_">
</g>
<g id="XMLID_338_">
</g>
<g id="XMLID_339_">
</g>
<g id="XMLID_340_">
</g>
<g id="XMLID_341_">
</g>
</svg>
