<?xml version="1.0" encoding="utf-8"?>
<!-- Generator: Adobe Illustrator 19.0.0, SVG Export Plug-In . SVG Version: 6.00 Build 0)  -->
<svg version="1.1" id="レイヤー_1" xmlns="http://www.w3.org/2000/svg" xmlns:xlink="http://www.w3.org/1999/xlink" x="0px"
	 y="0px" viewBox="0 0 38 49" style="enable-background:new 0 0 38 49;" xml:space="preserve">
<style type="text/css">
	.st0{fill-rule:evenodd;clip-rule:evenodd;fill:#D51819;}
	.st1{fill:#FFFFFF;}
	.st2{fill:#D51819;}
</style>
<g id="XMLID_26_">
	<g id="XMLID_101_">
		<g id="XMLID_103_">
			<path id="XMLID_127_" class="st0" d="M19.1,3c-8.8,0-16,7.2-16,16c0,8.8,13,27,16,27s16-18.2,16-27C35.1,10.2,28,3,19.1,3z"/>
			<path id="XMLID_104_" class="st1" d="M19.1,3c8.8,0,16,7.2,16,16c0,8.8-13,27-16,27s-16-18.2-16-27C3.1,10.2,10.3,3,19.1,3
				 M19.1,0c-10.5,0-19,8.5-19,19c0,6.3,5.1,15,7.4,18.4c1.9,2.9,3.9,5.6,5.6,7.6c2.5,2.8,4.3,4,6,4s3.5-1.2,6-4
				c1.8-2,3.8-4.7,5.6-7.6C33,34,38.1,25.3,38.1,19C38.1,8.5,29.6,0,19.1,0L19.1,0z"/>
		</g>
		<circle id="XMLID_102_" class="st1" cx="19.1" cy="19.1" r="12.4"/>
	</g>
	<g id="XMLID_42_">
		<g id="XMLID_226_">
			<path id="XMLID_230_" class="st2" d="M25.1,15.5h-6.2c-1,0-1.9,0.8-1.9,1.9v6.8c0,1,0.8,1.9,1.9,1.9h6.2c1,0,1.9-0.8,1.9-1.9
				v-6.8C26.9,16.3,26.1,15.5,25.1,15.5z M19,25c-0.5,0-0.8-0.4-0.8-0.8c0-0.5,0.4-0.8,0.8-0.8c0.5,0,0.8,0.4,0.8,0.8
				C19.8,24.6,19.4,25,19,25z M24.9,25c-0.5,0-0.8-0.4-0.8-0.8c0-0.5,0.4-0.8,0.8-0.8c0.5,0,0.8,0.4,0.8,0.8
				C25.7,24.6,25.4,25,24.9,25z M26.1,20.5c0,0.5-0.4,0.9-0.9,0.9h-6.4c-0.5,0-0.9-0.4-0.9-0.9v-2c0-0.5,0.4-0.9,0.9-0.9h6.4
				c0.5,0,0.9,0.4,0.9,0.9V20.5z"/>
			<path id="XMLID_227_" class="st2" d="M17,28h1.7l2-2.3L19.4,25L17,28z M24.7,25l-1.3,0.7l1.9,2.3h1.7L24.7,25z"/>
		</g>
	</g>
	<g id="XMLID_32_">
		<g id="XMLID_192_">
			<g id="XMLID_194_">
				<g id="XMLID_195_">
					<path id="XMLID_196_" class="st2" d="M17,8.1c-1.8,0-3.3,1.5-3.3,3.3c0,0.8,0,2,0,2h1c0-0.8,0-1.6,0-1.9c0-1.2,1.2-2.4,2.4-2.4
						c1.2,0,2.4,1.2,2.4,2.4c0,0.3,0,1.1,0,1.9h1c0,0,0-1.4,0-2C20.3,9.6,18.8,8.1,17,8.1z"/>
				</g>
			</g>
			<path id="XMLID_193_" class="st2" d="M15.7,16.4c0-1.1,0.9-2,2-2h4.4L22,13.5c0-0.4-0.3-0.7-0.7-0.7h-8.5c-0.4,0-0.7,0.3-0.7,0.7
				L10.9,23c0,0.4,0.3,0.7,0.7,0.7h4.1V16.4z"/>
		</g>
	</g>
</g>
</svg>
