<?xml version="1.0" encoding="utf-8"?>
<!-- Generator: Adobe Illustrator 19.0.0, SVG Export Plug-In . SVG Version: 6.00 Build 0)  -->
<svg version="1.1" id="レイヤー_1" xmlns="http://www.w3.org/2000/svg" xmlns:xlink="http://www.w3.org/1999/xlink" x="0px"
	 y="0px" viewBox="0 0 35.2 48.9" style="enable-background:new 0 0 35.2 48.9;" xml:space="preserve" width="32" height="32">
<style type="text/css">
	.st0{fill-rule:evenodd;clip-rule:evenodd;fill:#D51819;}
	.st1{fill:#FFFFFF;}
	.st2{fill:#D51819;}
</style>
<g id="XMLID_103_">
	<g id="XMLID_140_">
		<path id="XMLID_166_" class="st0" d="M18.9,36.8l0.4-2.2c7.5,0.2,12.9,2.6,12.9,5.6c0,3.1-6.5,5.8-14.6,5.8C9.5,46,3,43.3,3,40.2
			c0-3,5.4-5.4,12.9-5.6l0.4,2.2C10,37,5.2,38.4,5.2,40.2c0,1.9,5.5,3.7,12.4,3.7c6.8,0,12.4-1.8,12.4-3.7
			C30,38.4,25.2,37,18.9,36.8z M5.3,15.5C5.3,8.6,10.9,3,17.8,3c6.8,0,12.4,5.6,12.4,12.5c0,5.9-4.1,10.9-9.6,12.1l-2.9,16.2
			l-3-16.3C9.3,26.1,5.3,21.3,5.3,15.5z"/>
		<path id="XMLID_139_" class="st1" d="M17.8,3c6.8,0,12.4,5.6,12.4,12.5c0,5.9-4.1,10.9-9.6,12.1l-1.3,6.9l0,0l-1.7,9.3l-1.3-7.1
			l-0.4-2.2c0,0,0,0,0,0l-1.3-7c-5.3-1.4-9.4-6.3-9.4-12.1C5.3,8.6,10.9,3,17.8,3 M19.3,34.6c7.5,0.2,12.9,2.6,12.9,5.6
			c0,3.1-6.5,5.8-14.6,5.8C9.5,46,3,43.3,3,40.2c0-3,5.4-5.4,12.9-5.6l0.4,2.2C10,37,5.2,38.4,5.2,40.2c0,1.9,5.5,3.7,12.4,3.7
			c6.8,0,12.4-1.8,12.4-3.7c0-1.8-4.8-3.2-11.1-3.4L19.3,34.6L19.3,34.6 M17.8,0C9.2,0,2.3,6.9,2.3,15.5c0,6.4,3.9,12,9.7,14.3
			l0.4,2C4.8,32.7,0,35.9,0,40.2c0,5.3,7.5,8.3,15.5,8.8l4.3,0c8-0.5,15.5-3.4,15.5-8.8c0-4.3-4.7-7.5-12.4-8.4l0.3-1.8
			c5.9-2.2,9.9-7.9,9.9-14.5C33.1,6.9,26.2,0,17.8,0L17.8,0z"/>
	</g>
	<circle id="XMLID_104_" class="st1" cx="17.6" cy="15.7" r="7.6"/>
	<g id="XMLID_146_">
		<path id="XMLID_147_" class="st2" d="M18.1,14.9h3.5v5c-0.7,0.2-1.9,0.5-3.1,0.5c-4.6,0-5.1-3.3-5.1-4.6c0-3.3,2.4-5,5.3-5
			c1.2,0,2.1,0.2,2.6,0.4l-0.5,1.8c-0.5-0.2-1.2-0.4-2.2-0.4c-1.7,0-3,0.9-3,3c0,1.9,1.2,3,2.8,3c0.4,0,0.9,0,1-0.1v-1.9h-1.4V14.9z
			"/>
	</g>
</g>
</svg>
