<?xml version="1.0" encoding="utf-8"?>
<!-- Generator: Adobe Illustrator 19.0.0, SVG Export Plug-In . SVG Version: 6.00 Build 0)  -->
<svg version="1.1" id="レイヤー_1" xmlns="http://www.w3.org/2000/svg" xmlns:xlink="http://www.w3.org/1999/xlink" x="0px"
	 y="0px" viewBox="0 0 38 49" style="enable-background:new 0 0 38 49;" xml:space="preserve">
<style type="text/css">
	.st0{fill-rule:evenodd;clip-rule:evenodd;fill:#137B3B;}
	.st1{fill:#FFFFFF;}
	.st2{fill:#137B3B;}
	.st3{fill:#FAFAF7;}
</style>
<g id="XMLID_95_">
	<g id="XMLID_36_">
		<g id="XMLID_38_">
			<path id="XMLID_42_" class="st0" d="M19,3C10.2,3,3,10.2,3,19c0,8.8,13,27,16,27s16-18.2,16-27C35,10.2,27.8,3,19,3z"/>
			<path id="XMLID_39_" class="st1" d="M19,3c8.8,0,16,7.2,16,16c0,8.8-13,27-16,27S3,27.8,3,19C3,10.2,10.2,3,19,3 M19,0
				C8.5,0,0,8.5,0,19c0,6.3,5.1,15,7.4,18.4C9.2,40.3,11.2,43,13,45c2.5,2.8,4.3,4,6,4s3.5-1.2,6-4c1.8-2,3.8-4.7,5.6-7.6
				C32.9,34,38,25.3,38,19C38,8.5,29.5,0,19,0L19,0z"/>
		</g>
		<circle id="XMLID_37_" class="st1" cx="19" cy="19.1" r="12.4"/>
	</g>
	<g id="XMLID_32_">
		<g id="XMLID_170_">
			<path id="XMLID_173_" class="st2" d="M26.9,26.4H10.9c-0.3,0-0.5-0.2-0.5-0.5v-1.5c0-0.3,0.2-0.5,0.5-0.5h16.1
				c0.3,0,0.5,0.2,0.5,0.5v1.5C27.5,26.2,27.2,26.4,26.9,26.4z"/>
			<rect id="XMLID_172_" x="17.1" y="23.1" class="st2" width="3.7" height="0.7"/>
			<path id="XMLID_171_" class="st2" d="M26.3,12H11.5c-0.6,0-1.2,0.5-1.2,1.2V22c0,0.6,0.5,1.2,1.2,1.2h14.8c0.6,0,1.2-0.5,1.2-1.2
				v-8.9C27.5,12.5,27,12,26.3,12z"/>
		</g>
	</g>
	<path id="XMLID_26_" class="st3" d="M25.1,20.6c0,0.3-0.2,0.5-0.5,0.5H13.2c-0.3,0-0.5-0.2-0.5-0.5v-6.2c0-0.3,0.2-0.5,0.5-0.5
		h11.4c0.3,0,0.5,0.2,0.5,0.5V20.6z"/>
</g>
</svg>
