<?xml version="1.0" encoding="utf-8"?>
<!-- Generator: Adobe Illustrator 19.0.0, SVG Export Plug-In . SVG Version: 6.00 Build 0)  -->
<svg version="1.1" id="レイヤー_1" xmlns="http://www.w3.org/2000/svg" xmlns:xlink="http://www.w3.org/1999/xlink" x="0px"
	 y="0px" viewBox="0 0 38 49" style="enable-background:new 0 0 38 49;" xml:space="preserve">
<style type="text/css">
	.st0{fill-rule:evenodd;clip-rule:evenodd;fill:#F18819;}
	.st1{fill:#FFFFFF;}
	.st2{fill:#F18819;}
</style>
<g id="XMLID_26_">
	<g id="XMLID_40_">
		<g id="XMLID_42_">
			<path id="XMLID_95_" class="st0" d="M19,3C10.2,3,3,10.2,3,19c0,8.8,13,27,16,27s16-18.2,16-27C35,10.2,27.8,3,19,3z"/>
			<path id="XMLID_43_" class="st1" d="M19,3c8.8,0,16,7.2,16,16c0,8.8-13,27-16,27S3,27.8,3,19C3,10.2,10.2,3,19,3 M19,0
				C8.5,0,0,8.5,0,19c0,6.3,5.1,15,7.4,18.4C9.2,40.3,11.2,43,13,45c2.5,2.8,4.3,4,6,4s3.5-1.2,6-4c1.8-2,3.8-4.7,5.6-7.6
				C32.9,34,38,25.3,38,19C38,8.5,29.5,0,19,0L19,0z"/>
		</g>
		<circle id="XMLID_41_" class="st1" cx="19" cy="19.1" r="12.4"/>
	</g>
	<g id="XMLID_32_">
		<g id="XMLID_201_">
			<polygon id="XMLID_208_" class="st2" points="27.4,16.1 10.6,16.1 13.3,11 24.7,11 			"/>
			<g id="XMLID_203_">
				<path id="XMLID_207_" class="st2" d="M12.7,18.2c1.2,0,2.1-0.9,2.1-2.1h-4.2C10.7,17.2,11.6,18.2,12.7,18.2z"/>
				<path id="XMLID_206_" class="st2" d="M16.9,18.2c1.2,0,2.1-0.9,2.1-2.1h-4.2C14.8,17.2,15.8,18.2,16.9,18.2z"/>
				<path id="XMLID_205_" class="st2" d="M21.1,18.2c1.2,0,2.1-0.9,2.1-2.1H19C19,17.2,19.9,18.2,21.1,18.2z"/>
				<path id="XMLID_204_" class="st2" d="M25.3,18.2c1.2,0,2.1-0.9,2.1-2.1h-4.2C23.2,17.2,24.1,18.2,25.3,18.2z"/>
			</g>
			<path id="XMLID_202_" class="st2" d="M25.3,19c-0.5,0-1-0.2-1.3-0.5v5.3c0,0.4-0.3,0.7-0.7,0.7h-8.4c-0.4,0-0.7-0.3-0.7-0.7v-5.3
				c-0.4,0.3-0.8,0.5-1.3,0.5c-0.2,0-0.4,0-0.6-0.1v6.8c0,0.4,0.3,0.7,0.7,0.7h12.2c0.4,0,0.7-0.3,0.7-0.7v-6.8
				C25.6,18.9,25.4,19,25.3,19z"/>
		</g>
	</g>
</g>
</svg>
