<?xml version="1.0" encoding="utf-8"?>
<!-- Generator: Adobe Illustrator 16.0.0, SVG Export Plug-In . SVG Version: 6.00 Build 0)  -->
<!DOCTYPE svg PUBLIC "-//W3C//DTD SVG 1.1//EN" "http://www.w3.org/Graphics/SVG/1.1/DTD/svg11.dtd">
<svg version="1.1" id="レイヤー_1" xmlns="http://www.w3.org/2000/svg" xmlns:xlink="http://www.w3.org/1999/xlink" x="0px"
	 y="0px" width="51px" height="32px" viewBox="0 0 51 32" enable-background="new 0 0 51 32" xml:space="preserve">
<g id="レイヤー_1_1_">
</g>
<g id="レイヤー_2" display="none">
	<g display="inline">
		<path fill="#D71920" d="M51,23.496C51,28.193,47.191,32,42.496,32H8.504C3.808,32,0,28.193,0,23.496V8.504
			C0,3.808,3.808,0,8.504,0h33.992C47.191,0,51,3.808,51,8.504V23.496z"/>
		<g>
			<path fill="#FFFFFF" d="M35.624,4.275l1.604,6.212l-6.035-1.273l1.154-1.346l-0.619-0.397c-4.545-2.924-10.422-2.55-14.515,0.861
				L15.028,6.19c5.271-4.588,13.097-5.049,18.867-1.026l0.455,0.382L35.624,4.275L35.624,4.275z"/>
			<path fill="#FFFFFF" d="M35.134,22.914l2.21,2.195c-5.285,4.898-13.262,5.49-19.216,1.339l-0.451-0.313l-1.12,1.17l-1.551-6.377
				l5.987,1.33L19.7,23.771l0.625,0.396C25.038,27.18,31.034,26.641,35.134,22.914L35.134,22.914z"/>
		</g>
		<g>
			<circle fill="#FFFFFF" cx="11.371" cy="11.627" r="8.512"/>
			<g>
				<path fill="#D71920" d="M11.831,10.712l-1.212,0.003c-0.195,4.301-1.118,4.929-4.189,6.1l-1.06-1.353
					c3.06-0.739,3.578-1.667,3.621-4.742l-3.037,0.01L5.95,9.258l10.933-0.035l0.005,1.473l-3.558,0.012l0.012,3.843
					c0.002,0.34,0.145,0.521,0.471,0.521l1.017-0.003c0.717-0.002,0.805-1.006,0.83-1.385l1.539,0.607
					c-0.387,1.526-0.67,2.191-2,2.195l-2.229,0.008c-0.6,0.002-1.121-0.4-1.124-1.053L11.831,10.712z M7.155,7.352L7.15,5.905
					l8.47-0.027l0.005,1.446L7.155,7.352z"/>
			</g>
		</g>
		<g>
			<circle fill="#FFFFFF" cx="40.148" cy="21.231" r="8.512"/>
			<g>
				<path fill="#D71920" d="M39.221,25.023l-2.263,0.008l-0.004-1.074l2.262-0.006l-0.004-1.123l-2.262,0.006l-0.005-1.072
					l1.619-0.006l-3.106-5.787l2.099-0.006l2.594,5.275l2.608-5.292l2.048-0.007l-3.089,5.807l1.636-0.006l0.004,1.074l-2.262,0.008
					l0.004,1.123l2.262-0.008l0.004,1.072l-2.262,0.008l0.008,2.727l-1.883,0.005L39.221,25.023z"/>
			</g>
		</g>
	</g>
</g>
<g>
	<path fill="#D71920" d="M51,23.496c0,4.697-3.809,8.505-8.504,8.505H8.503C3.807,32.001,0,28.193,0,23.496V8.504
		C0,3.808,3.807,0,8.503,0h33.993C47.191,0,51,3.808,51,8.504V23.496z"/>
	<g>
		<polygon fill="#FFD600" points="10.208,4.524 14.844,18.88 2.983,9.962 17.519,9.962 5.748,18.88 		"/>
		<polygon fill="#FFD600" points="28.703,15.161 30.215,19.829 26.355,16.932 31.084,16.932 27.258,19.829 		"/>
		<polygon fill="#FFD600" points="27.924,7.47 30.885,11.381 26.289,9.911 30.752,8.358 28.09,12.354 		"/>
		<polygon fill="#FFD600" points="21.333,3.186 26.012,4.657 21.417,6.125 24.151,2.271 24.297,7.066 		"/>
		<polygon fill="#FFD600" points="21.333,21.55 26.012,23.025 21.417,24.489 24.151,20.637 24.297,25.438 		"/>
	</g>
</g>
</svg>
