<?xml version="1.0" encoding="utf-8"?>
<!-- Generator: Adobe Illustrator 19.0.0, SVG Export Plug-In . SVG Version: 6.00 Build 0)  -->
<svg version="1.1" id="レイヤー_1" xmlns="http://www.w3.org/2000/svg" xmlns:xlink="http://www.w3.org/1999/xlink" x="0px"
	 y="0px" viewBox="0 0 35.2 48.9" style="enable-background:new 0 0 35.2 48.9;" xml:space="preserve" width="32" height="32">
<style type="text/css">
	.st0{fill-rule:evenodd;clip-rule:evenodd;fill:#1E2C5B;}
	.st1{fill:#FFFFFF;}
	.st2{fill:#1E2C5B;}
</style>
<g id="XMLID_100_">
	<g id="XMLID_171_">
		<path id="XMLID_181_" class="st0" d="M18.9,36.8l0.4-2.2c7.5,0.2,12.9,2.6,12.9,5.6c0,3.1-6.5,5.8-14.6,5.8C9.5,46,3,43.3,3,40.2
			c0-3,5.4-5.4,12.9-5.6l0.4,2.2C10,37,5.2,38.4,5.2,40.2c0,1.9,5.5,3.7,12.4,3.7c6.8,0,12.4-1.8,12.4-3.7
			C30,38.4,25.2,37,18.9,36.8z M5.3,15.5C5.3,8.6,10.9,3,17.8,3c6.8,0,12.4,5.6,12.4,12.5c0,5.9-4.1,10.9-9.6,12.1l-2.9,16.2
			l-3-16.3C9.3,26.1,5.3,21.3,5.3,15.5z"/>
		<path id="XMLID_137_" class="st1" d="M17.8,3c6.8,0,12.4,5.6,12.4,12.5c0,5.9-4.1,10.9-9.6,12.1l-2.9,16.2l-1.3-7.1l-0.3-1.5
			l-1.4-7.8c-5.3-1.4-9.4-6.3-9.4-12.1C5.3,8.6,10.9,3,17.8,3 M19.3,34.6c7.5,0.2,12.9,2.6,12.9,5.6c0,3.1-6.5,5.8-14.6,5.8
			C9.5,46,3,43.3,3,40.2c0-3,5.4-5.4,12.9-5.6l0.1,0.7l0.3,1.5C10,37,5.2,38.4,5.2,40.2c0,1.9,5.5,3.7,12.4,3.7
			c6.8,0,12.4-1.8,12.4-3.7c0-1.8-4.8-3.2-11.1-3.4L19.3,34.6 M17.8,0C9.2,0,2.3,6.9,2.3,15.5c0,6.4,3.9,12,9.7,14.3l0.4,2
			C4.8,32.7,0,35.9,0,40.2c0,5.3,7.5,8.3,15.5,8.8l4.3,0c8-0.5,15.5-3.4,15.5-8.8c0-4.3-4.7-7.5-12.4-8.4l0.3-1.8
			c5.9-2.2,9.9-7.9,9.9-14.5C33.1,6.9,26.2,0,17.8,0L17.8,0z"/>
	</g>
	<circle id="XMLID_46_" class="st1" cx="17.6" cy="15.7" r="7.6"/>
	<g id="XMLID_175_">
		<path id="XMLID_182_" class="st2" d="M14.4,17.9c0.7,0.3,1.7,0.7,2.8,0.7c1.2,0,1.8-0.4,1.8-1c0-0.5-0.5-0.8-2-1.2
			c-1.6-0.4-3-1.2-3-2.8c0-1.6,1.6-2.8,3.9-2.8c1.3,0,2.2,0.3,2.9,0.6l-0.6,1.7c-0.5-0.2-1.3-0.5-2.4-0.5c-1.1,0-1.7,0.4-1.7,0.8
			c0,0.6,0.8,0.8,2.3,1.2c1.9,0.5,2.8,1.3,2.8,2.8c0,1.5-1.2,2.9-4.2,2.9c-1.3,0-2.5-0.4-3.1-0.7L14.4,17.9z"/>
	</g>
</g>
</svg>
