<?xml version="1.0" encoding="utf-8"?>
<!-- Generator: Adobe Illustrator 19.0.0, SVG Export Plug-In . SVG Version: 6.00 Build 0)  -->
<svg version="1.1" id="レイヤー_1" xmlns="http://www.w3.org/2000/svg" xmlns:xlink="http://www.w3.org/1999/xlink" x="0px"
	 y="0px" viewBox="0 0 38 49" style="enable-background:new 0 0 38 49;" xml:space="preserve">
<style type="text/css">
	.st0{fill-rule:evenodd;clip-rule:evenodd;fill:#2557A6;}
	.st1{fill:#FFFFFF;}
	.st2{fill:#23539B;}
</style>
<g id="XMLID_101_">
	<g id="XMLID_33_">
		<g id="XMLID_35_">
			<path id="XMLID_158_" class="st0" d="M19,3C10.2,3,3,10.2,3,19c0,8.8,13,27,16,27s16-18.2,16-27C35,10.2,27.8,3,19,3z"/>
			<path id="XMLID_36_" class="st1" d="M19,3c8.8,0,16,7.2,16,16c0,8.8-13,27-16,27S3,27.8,3,19C3,10.2,10.2,3,19,3 M19,0
				C8.5,0,0,8.5,0,19c0,6.3,5.1,15,7.4,18.4C9.2,40.3,11.2,43,13,45c2.5,2.8,4.3,4,6,4s3.5-1.2,6-4c1.8-2,3.8-4.7,5.6-7.6
				C32.9,34,38,25.3,38,19C38,8.5,29.5,0,19,0L19,0z"/>
		</g>
		<circle id="XMLID_34_" class="st1" cx="19" cy="19.1" r="12.4"/>
	</g>
	<g id="XMLID_26_">
		<path id="XMLID_32_" class="st0" d="M14.8,19.2l-0.3-0.3c-0.3-0.3-0.6-0.3-0.8-0.1c-0.3,0.3-0.2,0.7,0.4,1.2l0.6,0.6l-0.3,2
			l-0.4-0.4c-0.3-0.3-0.5-0.3-0.8,0c-0.3,0.3-0.2,0.6,0.1,1l0.8,0.8c-0.3,2.2-0.4,3.5-0.1,3.7c0.1,0.1,0.3,0.2,0.5,0.2
			c0.2,0,0.4,0,0.5-0.1c0.1-0.1,0.2-0.5,0.4-1.3c0.2-0.7,0.6-2,1.2-3.7c0.7-1.8,1.1-2.8,1.4-3c0.2-0.2,0.5,0,1,0.5
			c1.6,1.6,2.8,2.7,3.7,3.2c0,0.2,0,0.6-0.2,1.4c-0.1,0.8-0.2,1.2-0.1,1.4c0,0.2,0.2,0.5,0.5,0.8c0.2,0.2,0.3,0.2,0.4,0.3
			c0.2-0.2,0.7-1.1,1.4-2.9c1.6-0.6,2.5-1.1,2.9-1.4c0-0.1-0.1-0.2-0.3-0.4c-0.3-0.3-0.6-0.5-0.8-0.5c-0.2,0-0.7,0-1.4,0.1
			c-0.8,0.1-1.2,0.2-1.4,0.2c-0.6-0.8-1.3-1.7-2.2-2.6c-0.9-0.9-1.4-1.5-1.5-1.6c-0.1-0.2-0.1-0.3,0-0.4c0.2-0.2,1.3-0.7,3-1.4
			c1.8-0.7,3-1.1,3.7-1.2c0.7-0.2,1.1-0.3,1.3-0.4c0.1-0.1,0.1-0.3,0.1-0.5c0-0.2-0.1-0.4-0.2-0.5c-0.2-0.2-1.5-0.2-3.7,0.1
			l-0.8-0.8c-0.4-0.4-0.7-0.4-1-0.1c-0.2,0.2-0.2,0.5,0,0.8l0.4,0.4l-2,0.3l-0.6-0.6c-0.5-0.5-0.9-0.7-1.2-0.4
			c-0.2,0.2-0.2,0.5,0.1,0.8l0.3,0.3l-3,0.3l-1.8-1.8c-1.5-1.5-2.5-2-3-1.5c-0.2,0.2-0.1,0.7,0.4,1.4c0.5,0.7,0.9,1.2,1.2,1.5
			l1.8,1.8L14.8,19.2z"/>
		<path id="XMLID_169_" class="st2" d="M14.7,28.4c-0.1,0-0.2,0-0.3,0c-0.3-0.1-0.6-0.2-0.8-0.4c-0.3-0.3-0.5-0.8-0.1-3.9l-0.6-0.6
			c-0.8-0.8-0.3-1.5-0.1-1.7c0.3-0.3,0.8-0.4,1.2-0.2l0.1-0.8l-0.4-0.4c-1-1-0.7-1.6-0.4-1.9c0.3-0.3,0.7-0.4,1.1-0.2l0.1-1.8
			l-1.6-1.6c-0.3-0.3-0.7-0.8-1.2-1.6c-0.3-0.4-0.9-1.4-0.4-2c0.3-0.3,0.8-0.5,1.7-0.1c0.6,0.3,1.2,0.8,2,1.6l1.6,1.6l1.8-0.1
			c0-0.1-0.1-0.2-0.1-0.3c0-0.2,0-0.5,0.3-0.8c0.3-0.3,0.6-0.4,1-0.2c0.3,0.1,0.6,0.3,0.9,0.6l0.4,0.4l0.8-0.1
			c-0.2-0.4-0.1-0.8,0.2-1.2c0.3-0.3,0.7-0.4,0.9-0.3c0.3,0,0.5,0.2,0.8,0.5l0.6,0.6c3.1-0.4,3.6-0.2,3.9,0.1
			c0.2,0.2,0.3,0.4,0.4,0.8c0.1,0.5-0.1,0.8-0.2,0.9c-0.2,0.2-0.5,0.3-1.5,0.5c-0.7,0.2-1.9,0.6-3.7,1.2c-1.8,0.7-2.4,1-2.7,1.2
			c0.1,0.2,0.5,0.5,1.3,1.4c0.8,0.9,1.5,1.7,2.1,2.4c0.2,0,0.5-0.1,1-0.2c1.1-0.2,1.4-0.2,1.6-0.1c0.3,0.1,0.6,0.3,1,0.6
			c0.3,0.3,0.4,0.5,0.4,0.7l0,0.2l-0.2,0.2c-0.2,0.2-0.8,0.6-2.8,1.4c-1.1,2.5-1.3,2.7-1.4,2.8l-0.2,0.2l-0.2,0
			c-0.2,0-0.4-0.1-0.7-0.4c-0.4-0.4-0.6-0.7-0.6-1c0-0.2,0-0.5,0.1-1.6c0.1-0.5,0.1-0.9,0.2-1c-0.9-0.6-2-1.6-3.5-3.1
			c-0.2-0.2-0.3-0.3-0.4-0.3c-0.2,0.3-0.5,0.9-1.2,2.7c-0.7,1.7-1.1,2.9-1.2,3.7c-0.2,1-0.4,1.3-0.5,1.5
			C15.2,28.3,15,28.4,14.7,28.4z M14.4,27.3c0,0,0.1,0,0.2,0.1c0,0,0,0,0.1,0c0-0.1,0.1-0.4,0.3-1c0.2-0.8,0.6-2,1.3-3.8
			c0.9-2.4,1.3-3,1.5-3.2c0.6-0.6,1.4,0.2,1.7,0.5c1.6,1.6,2.8,2.6,3.6,3.2l0.2,0.1l0,0.2c0,0.1,0,0.4-0.2,1.5
			c-0.2,1-0.1,1.2-0.1,1.3c0,0,0,0.1,0.3,0.4c0.2-0.4,0.5-1,1.1-2.3l0.1-0.2l0.2-0.1c1.3-0.5,2-0.9,2.3-1.1
			c-0.3-0.3-0.4-0.3-0.4-0.3c0,0-0.3,0-1.3,0.1c-1.1,0.2-1.3,0.2-1.5,0.2l-0.2,0l-0.1-0.2c-0.6-0.8-1.3-1.7-2.2-2.5
			c-1.3-1.3-1.5-1.6-1.6-1.8c-0.2-0.4-0.1-0.7,0.1-1c0.2-0.2,0.8-0.6,3.2-1.5c1.8-0.7,3-1.1,3.8-1.3c0.6-0.1,0.9-0.2,1-0.3
			c0,0,0,0,0,0c0-0.2-0.1-0.2-0.1-0.3c0,0-0.1,0-0.4,0c-0.4,0-1.3,0-2.8,0.3l-0.2,0l-1-1c-0.2-0.2-0.2-0.2-0.2-0.2l-0.1,0.1
			c0,0,0,0,0,0l1.1,1.1l-3.2,0.5l-0.7-0.7c-0.4-0.4-0.5-0.4-0.5-0.4c0,0,0,0,0.1,0.1l1.1,1.1l-4.3,0.4l-1.9-1.9
			c-0.7-0.7-1.3-1.2-1.7-1.4c-0.1-0.1-0.3-0.2-0.5-0.1c0,0.1,0.1,0.4,0.4,0.8c0.5,0.7,0.8,1.2,1.1,1.5l1.9,1.9l-0.4,4.3l-1.1-1.1
			C14,19.1,14,19.1,14,19.1c0,0,0,0.2,0.4,0.6l0.7,0.7l-0.5,3.2l-1.1-1.1c-0.1-0.1-0.1-0.1-0.1-0.1c0,0.1,0,0.2,0.2,0.3l1,1l0,0.2
			C14.2,26.7,14.3,27.2,14.4,27.3C14.4,27.3,14.4,27.3,14.4,27.3z"/>
	</g>
</g>
</svg>
