<?xml version="1.0" encoding="utf-8"?>
<!-- Generator: Adobe Illustrator 19.0.0, SVG Export Plug-In . SVG Version: 6.00 Build 0)  -->
<svg version="1.1" id="レイヤー_1" xmlns="http://www.w3.org/2000/svg" xmlns:xlink="http://www.w3.org/1999/xlink" x="0px"
	 y="0px" viewBox="0 0 38 49" style="enable-background:new 0 0 38 49;" xml:space="preserve">
<style type="text/css">
	.st0{fill-rule:evenodd;clip-rule:evenodd;fill:#6C1C7C;}
	.st1{fill:#FFFFFF;}
	.st2{fill:#6C1C7C;}
</style>
<g id="XMLID_129_">
	<g id="XMLID_32_">
		<g id="XMLID_126_">
			<path id="XMLID_130_" class="st0" d="M19,3C10.2,3,3,10.2,3,19c0,8.8,13,27,16,27s16-18.2,16-27C35,10.2,27.8,3,19,3z"/>
			<path id="XMLID_125_" class="st1" d="M19,3c8.8,0,16,7.2,16,16c0,8.8-13,27-16,27S3,27.8,3,19C3,10.2,10.2,3,19,3 M19,0
				C8.5,0,0,8.5,0,19c0,6.3,5.1,15,7.4,18.4C9.2,40.3,11.2,43,13,45c2.5,2.8,4.3,4,6,4s3.5-1.2,6-4c1.8-2,3.8-4.7,5.6-7.6
				C32.9,34,38,25.3,38,19C38,8.5,29.5,0,19,0L19,0z"/>
		</g>
		<circle id="XMLID_26_" class="st1" cx="19" cy="19.1" r="12.4"/>
	</g>
	<g id="XMLID_33_">
		<g id="XMLID_94_">
			<path id="XMLID_100_" class="st2" d="M23.2,11.6h-8.4c-1.4,0-2.5,1.1-2.5,2.5v9.2c0,1.4,1.1,2.5,2.5,2.5h8.4
				c1.4,0,2.5-1.1,2.5-2.5v-9.2C25.8,12.7,24.6,11.6,23.2,11.6z M14.9,24.4c-0.6,0-1.1-0.5-1.1-1.1c0-0.6,0.5-1.1,1.1-1.1
				c0.6,0,1.1,0.5,1.1,1.1C16,23.9,15.5,24.4,14.9,24.4z M23,24.4c-0.6,0-1.1-0.5-1.1-1.1c0-0.6,0.5-1.1,1.1-1.1
				c0.6,0,1.1,0.5,1.1,1.1C24.1,23.9,23.6,24.4,23,24.4z M24.6,18.4c0,0.7-0.6,1.3-1.3,1.3h-8.7c-0.7,0-1.3-0.6-1.3-1.3v-2.8
				c0-0.7,0.6-1.3,1.3-1.3h8.7c0.7,0,1.3,0.6,1.3,1.3V18.4z"/>
			<circle id="XMLID_99_" class="st2" cx="20.2" cy="10" r="0.8"/>
			<circle id="XMLID_98_" class="st2" cx="17.9" cy="10" r="0.8"/>
			<path id="XMLID_95_" class="st2" d="M12.2,28.6h2.3l2.7-3.1l-1.8-1L12.2,28.6z M22.7,24.5l-1.8,0.9l2.5,3.1h2.3L22.7,24.5z"/>
		</g>
	</g>
</g>
</svg>
