<?xml version="1.0" encoding="utf-8"?>
<!-- Generator: Adobe Illustrator 19.0.0, SVG Export Plug-In . SVG Version: 6.00 Build 0)  -->
<svg version="1.1" id="レイヤー_1" xmlns="http://www.w3.org/2000/svg" xmlns:xlink="http://www.w3.org/1999/xlink" x="0px"
	 y="0px" viewBox="0 0 35.9 38.9" style="enable-background:new 0 0 35.9 38.9;" xml:space="preserve">
<g id="XMLID_59_">
	<g id="XMLID_340_">
		<g id="XMLID_360_">
			<path id="XMLID_361_" d="M17.7,0.1C13,0.1,9,4.1,9,8.9c0,2.2,0,2.3,0,2.3h2.5V9.1c0-3.2,3-6.2,6.2-6.2c3.2,0,6.2,3,6.2,6.2v2.1
				h2.5c0,0,0-0.6,0-2.3C26.5,4.1,22.5,0.1,17.7,0.1z"/>
		</g>
	</g>
	<g id="XMLID_84_">
		<path id="XMLID_339_" d="M19.7,28.9c-0.9,0-1.6,0.6-1.8,1.6h3.6c-0.1-0.5-0.2-0.9-0.5-1.2C20.7,29.1,20.3,28.9,19.7,28.9z"/>
		<path id="XMLID_338_" d="M27.4,28.9c-0.9,0-1.6,0.6-1.8,1.6h3.6c-0.1-0.5-0.2-0.9-0.5-1.2C28.3,29.1,27.9,28.9,27.4,28.9z"/>
		<path id="XMLID_337_" d="M15,20.9c0,0.6,0.4,0.9,1.1,0.9c0.6,0,1.3-0.2,1.7-0.6c0.3-0.3,0.4-0.6,0.4-1.1v-0.6
			C15.9,19.5,15,19.9,15,20.9z"/>
		<path id="XMLID_78_" d="M30.8,11.8c0-1-0.8-1.9-1.9-1.9H6.6c-1,0-1.9,0.9-1.9,1.9l-3,25.1c0,1,0.8,1.9,1.9,1.9h28.3
			c1,0,1.9-0.9,1.9-1.9L30.8,11.8z M21.6,16.9c-0.1-0.2-0.2-0.3-0.8-1h1.9c0.1,0.3,0.3,0.6,0.5,0.9l0.9,1.3l0.9-1.3
			c0.2-0.3,0.4-0.6,0.5-0.9h1.9c-0.4,0.5-0.6,0.8-0.8,1L25,19.2l1.8,2.4c0.2,0.2,0.6,0.8,0.9,1.2h-1.9c-0.2-0.4-0.3-0.6-0.6-1
			l-1-1.5l-1.1,1.6c-0.2,0.3-0.3,0.5-0.5,0.9h-1.9c0.3-0.3,0.6-0.8,0.8-1.1l1.8-2.5L21.6,16.9z M16.8,16.8c-0.5,0-1,0.1-1.2,0.3
			c-0.2,0.2-0.3,0.3-0.5,0.8l-1.5-0.3c0.3-0.7,0.5-1,0.9-1.3c0.6-0.4,1.3-0.6,2.3-0.6c1.2,0,1.8,0.2,2.4,0.7
			c0.4,0.4,0.6,0.8,0.6,1.7v3.2c0,0.6,0,1,0.1,1.5h-1.6V22c-0.5,0.5-0.8,0.6-1.3,0.8c-0.3,0.1-0.7,0.1-1.1,0.1c-1.5,0-2.4-0.8-2.4-2
			c0-0.8,0.5-1.6,1.4-1.9c0.8-0.3,1.7-0.4,3.4-0.5v-0.6C18.1,17.2,17.7,16.8,16.8,16.8z M7.7,15.8c0.3,0.1,0.6,0.1,1.1,0.1h0.4v-0.4
			c0-0.5,0-1-0.1-1.5h1.7c0,0.4-0.1,0.9-0.1,1.5v0.4h0.5c0.6,0,0.8,0,1.2-0.1v1.4c-0.4-0.1-0.6-0.1-1.2-0.1h-0.5v3.7
			c0,0.6,0.2,0.8,0.8,0.8c0.3,0,0.5-0.1,0.9-0.3l0.2,1.3c-0.5,0.2-0.9,0.3-1.5,0.3c-1.4,0-1.9-0.5-1.9-1.8v-4H8.8
			c-0.4,0-0.7,0-1.1,0.1V15.8z M9.6,26.6c-0.4-0.2-0.7-0.3-1.1-0.3c-0.7,0-0.9,0.3-0.9,1.1v0.5h0.6c0.5,0,0.9,0,1.4-0.1v1.4
			c-0.4,0-0.7-0.1-1.3-0.1H7.6v4.1c0,0.7,0,1,0.1,1.6H5.9C6,34.2,6,33.8,6,33.2v-4.1H5.5c-0.5,0-0.8,0-1.1,0.1v-1.4
			c0.3,0,0.7,0.1,1.1,0.1H6v-0.6c0-1.5,0.8-2.2,2.4-2.2c0.5,0,0.9,0.1,1.5,0.2L9.6,26.6z M15.4,29.4c-0.5-0.1-0.8-0.2-1.1-0.2
			c-0.6,0-1.1,0.2-1.4,0.6c-0.3,0.3-0.4,0.6-0.5,1.2v2.2c0,0.6,0,1,0.1,1.6h-1.7c0.1-0.6,0.1-0.9,0.1-1.6v-3.8c0-0.7,0-1.1-0.1-1.6
			h1.6V29c0.4-0.9,1.2-1.3,2.3-1.3c0.3,0,0.6,0,1.1,0.1L15.4,29.4z M18.3,33.1c0.3,0.4,0.9,0.7,1.5,0.7c0.6,0,1.1-0.2,1.4-0.6
			c0.1-0.2,0.2-0.3,0.3-0.6L23,33c-0.3,0.6-0.4,0.8-0.7,1.1c-0.6,0.6-1.5,0.9-2.5,0.9c-2.1,0-3.5-1.4-3.5-3.7c0-2.2,1.3-3.7,3.4-3.7
			c1.4,0,2.5,0.7,3,1.9c0.2,0.6,0.3,1,0.3,1.8c0,0,0,0.1,0,0.3h-5.2C18,32.4,18.1,32.7,18.3,33.1z M26,33.1c0.3,0.4,0.9,0.7,1.5,0.7
			c0.6,0,1.1-0.2,1.4-0.6c0.1-0.2,0.2-0.3,0.3-0.6l1.4,0.5c-0.3,0.6-0.4,0.8-0.7,1.1c-0.6,0.6-1.5,0.9-2.5,0.9
			c-2.1,0-3.5-1.4-3.5-3.7c0-2.2,1.3-3.7,3.4-3.7c1.4,0,2.5,0.7,3,1.9c0.2,0.6,0.3,1,0.3,1.8c0,0,0,0.1,0,0.3h-5.2
			C25.6,32.4,25.7,32.7,26,33.1z"/>
	</g>
</g>
<g id="XMLID_341_">
</g>
<g id="XMLID_342_">
</g>
<g id="XMLID_343_">
</g>
<g id="XMLID_348_">
</g>
<g id="XMLID_349_">
</g>
<g id="XMLID_350_">
</g>
</svg>
