<?xml version="1.0" encoding="utf-8"?>
<!-- Generator: Adobe Illustrator 19.0.0, SVG Export Plug-In . SVG Version: 6.00 Build 0)  -->
<svg version="1.1" id="レイヤー_1" xmlns="http://www.w3.org/2000/svg" xmlns:xlink="http://www.w3.org/1999/xlink" x="0px"
	 y="0px" viewBox="0 0 38 49" style="enable-background:new 0 0 38 49;" xml:space="preserve">
<style type="text/css">
	.st0{fill-rule:evenodd;clip-rule:evenodd;fill:#BFB029;}
	.st1{fill:#FFFFFF;}
	.st2{fill:#BFB029;}
</style>
<g id="XMLID_99_">
	<g id="XMLID_94_">
		<g id="XMLID_96_">
			<path id="XMLID_167_" class="st0" d="M19,3C10.2,3,3,10.2,3,19c0,8.8,13,27,16,27s16-18.2,16-27C35,10.2,27.8,3,19,3z"/>
			<path id="XMLID_97_" class="st1" d="M19,3c8.8,0,16,7.2,16,16c0,8.8-13,27-16,27S3,27.8,3,19C3,10.2,10.2,3,19,3 M19,0
				C8.5,0,0,8.5,0,19c0,6.3,5.1,15,7.4,18.4C9.2,40.3,11.2,43,13,45c2.5,2.8,4.3,4,6,4s3.5-1.2,6-4c1.8-2,3.8-4.7,5.6-7.6
				C32.9,34,38,25.3,38,19C38,8.5,29.5,0,19,0L19,0z"/>
		</g>
		<circle id="XMLID_95_" class="st1" cx="19" cy="19.1" r="12.4"/>
	</g>
	<g id="XMLID_26_">
		<g id="XMLID_36_">
			<g id="XMLID_157_">
				<path id="XMLID_158_" class="st2" d="M19,9c-2.1,0-3.9,1.8-3.9,3.9c0,1,0,2.3,0,2.3h1.1V13c0-1.4,1.4-2.8,2.8-2.8
					c1.4,0,2.8,1.4,2.8,2.8v2.3h1.1c0,0,0-1.6,0-2.3C22.9,10.8,21.1,9,19,9z"/>
			</g>
		</g>
		<g id="XMLID_32_">
			<path id="XMLID_33_" class="st2" d="M24,14.5H14c-0.5,0-0.8,0.4-0.8,0.8l-1.3,11.2c0,0.5,0.4,0.8,0.8,0.8h12.6
				c0.5,0,0.8-0.4,0.8-0.8l-1.3-11.2C24.8,14.9,24.4,14.5,24,14.5z"/>
		</g>
	</g>
</g>
</svg>
