<?xml version="1.0" encoding="utf-8"?>
<!-- Generator: Adobe Illustrator 15.1.0, SVG Export Plug-In . SVG Version: 6.00 Build 0)  -->
<!DOCTYPE svg PUBLIC "-//W3C//DTD SVG 1.1//EN" "http://www.w3.org/Graphics/SVG/1.1/DTD/svg11.dtd">
<svg version="1.1" xmlns="http://www.w3.org/2000/svg" xmlns:xlink="http://www.w3.org/1999/xlink" x="0px" y="0px" width="32px"
	 height="32px" viewBox="0 0 32 32" enable-background="new 0 0 32 32" xml:space="preserve">
<g id="レイヤー_1" display="none">
	<g display="inline">
		<path fill="#D71920" d="M32,24.346C32,28.572,28.573,32,24.347,32H7.653C3.427,32,0,28.572,0,24.346V7.653
			C0,3.427,3.427,0,7.653,0h16.693C28.573,0,32,3.427,32,7.653V24.346z"/>
		<g>
			<g>
				<path fill="#FFFFFF" d="M16.745,15.377h-2.324c-0.4,8.248-2.175,9.447-8.073,11.671l-2.024-2.6
					c5.874-1.398,6.873-3.174,6.973-9.072H5.473v-2.824h20.97v2.824H19.62v7.373c0,0.65,0.274,1,0.898,1h1.95
					c1.374,0,1.55-1.924,1.6-2.648l2.949,1.174c-0.75,2.924-1.3,4.199-3.849,4.199h-4.274c-1.149,0-2.149-0.775-2.149-2.025V15.377z
					 M7.797,8.904V6.13h16.247v2.774H7.797z"/>
			</g>
		</g>
	</g>
</g>
<g id="レイヤー_5" display="none">
	<path display="inline" fill="#D71920" d="M30.119,13.987c0-7.458-6.236-13.503-13.929-13.503c-7.692,0-13.929,6.045-13.929,13.503
		c0,6.416,4.617,12.394,10.807,13.938h-0.056c0,0,1.233,0.391,1.94,1.569s1.238,2.327,1.238,2.327s0.61-1.148,1.272-2.268
		c0.662-1.118,1.904-1.629,1.904-1.629h-0.055C25.502,26.381,30.119,20.403,30.119,13.987z"/>
	<g display="inline">
		<g>
			<path fill="#FFFFFF" d="M17.331,13.166h-2.046c-0.352,7.26-1.915,8.317-7.107,10.276l-1.782-2.289
				c5.17-1.232,6.051-2.795,6.139-7.987H7.407v-2.486h18.461v2.486h-6.007v6.491c0,0.572,0.242,0.881,0.792,0.881h1.716
				c1.211,0,1.365-1.695,1.408-2.333l2.597,1.034c-0.66,2.574-1.144,3.696-3.388,3.696h-3.764c-1.012,0-1.892-0.683-1.892-1.782
				V13.166z M9.454,7.466V5.024h14.302v2.442H9.454z"/>
		</g>
	</g>
</g>
<g id="レイヤー_2" display="none">
	<g display="inline">
		<path fill="#D71920" d="M32,24.347C32,28.574,28.573,32,24.347,32H7.653C3.427,32,0,28.574,0,24.347V7.653
			c0-4.227,3.427-7.652,7.653-7.652h16.693C28.573,0.001,32,3.427,32,7.653V24.347z"/>
		<g>
			<path fill="#FFFFFF" d="M12.193,7.397h-2.11v8.062H8.134V7.397H6.023V5.801h6.169V7.397z"/>
			<path fill="#FFFFFF" d="M16.202,5.801l2.557,9.659h-2.03l-0.446-2.043h-2.571l-0.446,2.043h-2.029l2.557-9.659H16.202z
				 M15.944,11.821l-0.934-4.343h-0.027l-0.934,4.343H15.944z"/>
			<path fill="#FFFFFF" d="M21.14,5.801l1.244,3.125l1.23-3.125h2.125l-2.246,4.776l2.408,4.883H23.71l-1.395-3.273l-1.379,3.273
				h-2.139l2.408-4.883l-2.219-4.776H21.14z"/>
			<path fill="#FFFFFF" d="M9.289,16.87v1.596h-3.45v2.273h3.247v1.597H5.838v4.194H3.89v-9.66H9.289z"/>
			<path fill="#FFFFFF" d="M13.319,16.87c0.812,0,1.443,0.205,1.895,0.615c0.451,0.41,0.676,1.035,0.676,1.874
				c0,0.649-0.131,1.179-0.393,1.59s-0.667,0.675-1.217,0.792v0.026c0.487,0.072,0.843,0.229,1.069,0.474
				c0.225,0.244,0.365,0.636,0.419,1.177c0.018,0.181,0.031,0.377,0.041,0.589c0.009,0.212,0.018,0.449,0.027,0.71
				c0.018,0.515,0.045,0.907,0.081,1.177c0.054,0.271,0.171,0.456,0.352,0.555v0.082h-2.111c-0.099-0.136-0.162-0.291-0.189-0.467
				c-0.027-0.176-0.045-0.359-0.054-0.549l-0.054-1.854c-0.018-0.379-0.113-0.676-0.284-0.893s-0.46-0.324-0.866-0.324h-1.042v4.086
				H9.721v-9.66H13.319z M12.481,21.091c0.469,0,0.83-0.109,1.082-0.331s0.379-0.593,0.379-1.116c0-0.893-0.451-1.34-1.353-1.34
				h-0.92v2.787H12.481z"/>
			<path fill="#FFFFFF" d="M22.154,18.466h-3.45v2.273h3.247v1.597h-3.247v2.598h3.586v1.597h-5.534v-9.66h5.398V18.466z"/>
			<path fill="#FFFFFF" d="M28.198,18.466h-3.451v2.273h3.248v1.597h-3.248v2.598h3.586v1.597H22.8v-9.66h5.398V18.466z"/>
		</g>
	</g>
</g>
<g id="レイヤー_7">
	<g>
		<path fill="#D71920" d="M30.008,14.164c0-7.457-6.236-13.503-13.93-13.503C8.387,0.661,2.15,6.707,2.15,14.164
			c0,6.416,4.617,12.394,10.807,13.938H12.9c0,0,1.234,0.392,1.941,1.569C15.549,30.852,16.08,32,16.08,32s0.609-1.15,1.271-2.269
			s1.904-1.629,1.904-1.629h-0.055C25.391,26.558,30.008,20.58,30.008,14.164z"/>
		<g>
			<path fill="#FFFFFF" d="M13.117,7.018h-1.716v6.556H9.817V7.018H8.101V5.72h5.016V7.018z"/>
			<path fill="#FFFFFF" d="M16.436,5.72l2.08,7.854h-1.651l-0.363-1.66h-2.09l-0.363,1.66h-1.65l2.079-7.854H16.436z M16.227,10.614
				l-0.759-3.531h-0.022l-0.759,3.531H16.227z"/>
			<path fill="#FFFFFF" d="M20.494,5.72l1.012,2.541l1.001-2.541h1.728l-1.826,3.883l1.957,3.971h-1.781l-1.133-2.662l-1.122,2.662
				h-1.738l1.958-3.971L18.745,5.72H20.494z"/>
			<path fill="#FFFFFF" d="M10.734,14.72v1.298H7.929v1.849h2.64v1.297h-2.64v3.41H6.345V14.72H10.734z"/>
			<path fill="#FFFFFF" d="M14.061,14.72c0.66,0,1.173,0.167,1.54,0.5c0.367,0.334,0.55,0.842,0.55,1.523
				c0,0.529-0.106,0.959-0.319,1.293c-0.213,0.334-0.543,0.549-0.99,0.644v0.022c0.396,0.059,0.686,0.187,0.869,0.385
				c0.183,0.197,0.297,0.517,0.341,0.957c0.015,0.146,0.026,0.307,0.033,0.479s0.015,0.365,0.022,0.577
				c0.015,0.418,0.037,0.737,0.066,0.957c0.044,0.22,0.139,0.37,0.286,0.451v0.065h-1.716c-0.081-0.109-0.132-0.236-0.154-0.379
				s-0.037-0.291-0.044-0.445L14.5,20.241c-0.015-0.308-0.092-0.549-0.231-0.726c-0.14-0.176-0.374-0.264-0.704-0.264h-0.847v3.321
				h-1.584V14.72H14.061z M13.378,18.151c0.381,0,0.675-0.09,0.88-0.27c0.206-0.18,0.308-0.482,0.308-0.907
				c0-0.726-0.367-1.089-1.1-1.089h-0.748v2.266H13.378z"/>
			<path fill="#FFFFFF" d="M21.292,16.018h-2.806v1.849h2.641v1.297h-2.641v2.113h2.916v1.297h-4.5V14.72h4.389V16.018z"/>
			<path fill="#FFFFFF" d="M26.254,16.018h-2.806v1.849h2.64v1.297h-2.64v2.113h2.915v1.297h-4.499V14.72h4.39V16.018z"/>
		</g>
	</g>
</g>
<g id="レイヤー_3" display="none">
	<g display="inline">
		<path fill="#D71920" d="M32,24.346C32,28.572,28.573,32,24.347,32H7.653C3.427,32,0,28.572,0,24.346V7.653
			C0,3.427,3.427,0,7.653,0h16.693C28.573,0,32,3.427,32,7.653V24.346z"/>
		<g>
			<path fill="#FFFFFF" d="M14.264,22.891H9.62v-2.203h4.644v-2.305H9.62V16.18h3.322L6.603,4.281h4.305l5.288,10.847l5.39-10.847
				h4.203L19.417,16.18h3.355v2.203h-4.645v2.305h4.645v2.203h-4.645v5.594h-3.864V22.891z"/>
		</g>
	</g>
</g>
<g id="レイヤー_6" display="none">
	<g display="inline">
		<path fill="#D71920" d="M30.008,13.987c0-7.458-6.236-13.503-13.93-13.503C8.387,0.484,2.15,6.53,2.15,13.987
			c0,6.416,4.617,12.394,10.807,13.938H12.9c0,0,1.234,0.391,1.941,1.569s1.238,2.327,1.238,2.327s0.609-1.148,1.271-2.268
			c0.662-1.118,1.904-1.629,1.904-1.629h-0.055C25.391,26.381,30.008,20.403,30.008,13.987z"/>
		<g>
			<path fill="#FFFFFF" d="M14.755,21.178h-3.863v-1.833h3.863v-1.917h-3.863v-1.833h2.763L8.382,5.698h3.581l4.398,9.023
				l4.484-9.023h3.496l-5.301,9.897h2.791v1.833h-3.863v1.917h3.863v1.833h-3.863v4.652h-3.214V21.178z"/>
		</g>
	</g>
</g>
<g id="レイヤー_4" display="none">
	<g display="inline">
		<path fill="#D71920" d="M30.119,13.937c0-7.458-6.236-13.503-13.929-13.503c-7.692,0-13.929,6.045-13.929,13.503
			c0,6.417,4.617,12.393,10.807,13.938h-0.056c0,0,1.233,0.392,1.94,1.57s1.238,2.327,1.238,2.327s0.61-1.149,1.272-2.269
			c0.662-1.117,1.904-1.629,1.904-1.629h-0.055C25.502,26.33,30.119,20.354,30.119,13.937z"/>
		<g>
			<polygon fill="#FFFFFF" points="27.423,7.654 26.844,13.245 22.293,9.948 			"/>
			<polygon fill="#FFFFFF" points="5.525,21.098 6.361,15.54 10.757,19.042 			"/>
			<path fill="#FFFFFF" d="M16.468,5.442c3.708,0,6.897,2.249,8.283,5.453l1.855-0.758c-1.684-3.935-5.595-6.699-10.139-6.699
				S8.014,6.203,6.331,10.137l1.856,0.758C9.571,7.69,12.762,5.442,16.468,5.442z"/>
			<path fill="#FFFFFF" d="M16.468,23.479c-3.829,0-7.104-2.399-8.411-5.771l-1.855,0.756c1.606,4.104,5.602,7.02,10.266,7.02
				c4.666,0,8.661-2.916,10.268-7.02l-1.855-0.756C23.574,21.079,20.297,23.479,16.468,23.479z"/>
		</g>
		<g>
			<path fill="#D71920" d="M28.514,13.988c0,6.719-5.447,12.166-12.167,12.166V13.988H28.514z"/>
			<path fill="#D71920" d="M16.347,1.821v12.167H4.18C4.18,7.269,9.627,1.821,16.347,1.821z"/>
		</g>
		<g>
			<circle fill="#FFFFFF" cx="11.159" cy="9.476" r="6.209"/>
			<g>
				<path fill="#D71920" d="M11.5,8.808h-0.884c-0.152,3.137-0.827,3.593-3.07,4.439l-0.77-0.989
					c2.234-0.532,2.614-1.208,2.652-3.451H7.212V7.734h7.976v1.074h-2.595v2.804c0,0.247,0.104,0.38,0.342,0.38h0.742
					c0.523,0,0.589-0.732,0.608-1.008l1.122,0.447c-0.285,1.112-0.494,1.597-1.464,1.597h-1.625c-0.438,0-0.817-0.295-0.817-0.77
					V8.808z M8.096,6.346V5.291h6.179v1.055H8.096z"/>
			</g>
		</g>
		<g>
			<circle fill="#FFFFFF" cx="21.114" cy="18.734" r="6.208"/>
			<g>
				<path fill="#D71920" d="M20.427,21.498h-1.65v-0.782h1.65v-0.819h-1.65v-0.783h1.181l-2.252-4.228h1.529l1.879,3.854
					l1.916-3.854h1.493l-2.265,4.228h1.192v0.783H21.8v0.819h1.65v0.782H21.8v1.988h-1.373V21.498z"/>
			</g>
		</g>
	</g>
</g>
</svg>
