<?xml version="1.0" encoding="utf-8"?>
<!-- Generator: Adobe Illustrator 16.0.0, SVG Export Plug-In . SVG Version: 6.00 Build 0)  -->
<!DOCTYPE svg PUBLIC "-//W3C//DTD SVG 1.1//EN" "http://www.w3.org/Graphics/SVG/1.1/DTD/svg11.dtd">
<svg version="1.1" id="レイヤー_1" xmlns="http://www.w3.org/2000/svg" xmlns:xlink="http://www.w3.org/1999/xlink" x="0px"
	 y="0px" width="32px" height="32px" viewBox="0 0 32 32" enable-background="new 0 0 32 32" xml:space="preserve">
<g id="レイヤー_1_1_" display="none">
	<g display="inline">
		<path fill="#D71920" d="M32,24.346C32,28.572,28.572,32,24.348,32H7.653C3.427,32,0,28.572,0,24.346V7.653
			C0,3.427,3.427,0,7.653,0h16.693C28.572,0,32,3.427,32,7.653V24.346z"/>
		<g>
			<g>
				<path fill="#FFFFFF" d="M16.745,15.377h-2.324c-0.4,8.248-2.175,9.447-8.073,11.671l-2.024-2.6
					c5.874-1.398,6.873-3.175,6.973-9.072H5.473v-2.824h20.97v2.824H19.62v7.373c0,0.649,0.274,1,0.897,1h1.951
					c1.373,0,1.549-1.924,1.6-2.647l2.949,1.174c-0.75,2.924-1.301,4.199-3.85,4.199h-4.273c-1.149,0-2.149-0.775-2.149-2.025
					V15.377z M7.797,8.904V6.13h16.247v2.774H7.797z"/>
			</g>
		</g>
	</g>
</g>
<g id="レイヤー_5" display="none">
	<path display="inline" fill="#D71920" d="M30.119,13.987c0-7.458-6.236-13.503-13.929-13.503c-7.692,0-13.929,6.045-13.929,13.503
		c0,6.416,4.617,12.394,10.807,13.938h-0.056c0,0,1.233,0.392,1.94,1.569s1.238,2.326,1.238,2.326s0.61-1.147,1.272-2.268
		c0.662-1.117,1.904-1.629,1.904-1.629h-0.056C25.502,26.381,30.119,20.402,30.119,13.987z"/>
	<g display="inline">
		<g>
			<path fill="#FFFFFF" d="M17.331,13.166h-2.046c-0.352,7.26-1.915,8.316-7.107,10.275l-1.782-2.289
				c5.17-1.231,6.051-2.795,6.139-7.986H7.407V10.68h18.461v2.486h-6.007v6.491c0,0.571,0.242,0.881,0.791,0.881h1.717
				c1.211,0,1.365-1.695,1.408-2.333l2.597,1.034c-0.66,2.573-1.144,3.696-3.388,3.696h-3.764c-1.013,0-1.893-0.684-1.893-1.783
				L17.331,13.166L17.331,13.166z M9.454,7.466V5.024h14.302v2.442H9.454z"/>
		</g>
	</g>
</g>
<g id="レイヤー_2" display="none">
	<g display="inline">
		<path fill="#D71920" d="M32,24.348C32,28.574,28.572,32,24.348,32H7.653C3.427,32,0,28.574,0,24.348V7.653
			c0-4.227,3.427-7.652,7.653-7.652h16.693C28.572,0.001,32,3.427,32,7.653V24.348z"/>
		<g>
			<path fill="#FFFFFF" d="M12.193,7.397h-2.11v8.062H8.134V7.397H6.023V5.801h6.169L12.193,7.397L12.193,7.397z"/>
			<path fill="#FFFFFF" d="M16.202,5.801l2.557,9.659h-2.03l-0.445-2.043h-2.571l-0.446,2.043h-2.029l2.557-9.659H16.202z
				 M15.944,11.821L15.01,7.478h-0.027l-0.934,4.343H15.944z"/>
			<path fill="#FFFFFF" d="M21.141,5.801l1.243,3.125l1.229-3.125h2.125l-2.245,4.776L25.9,15.46h-2.19l-1.396-3.273l-1.379,3.273
				h-2.139l2.408-4.883l-2.219-4.776H21.141z"/>
			<path fill="#FFFFFF" d="M9.289,16.87v1.596h-3.45v2.273h3.247v1.597H5.838v4.194H3.89v-9.66H9.289z"/>
			<path fill="#FFFFFF" d="M13.319,16.87c0.812,0,1.443,0.205,1.895,0.614c0.451,0.41,0.676,1.035,0.676,1.875
				c0,0.648-0.131,1.179-0.393,1.59c-0.262,0.41-0.667,0.675-1.217,0.792v0.026c0.487,0.071,0.843,0.229,1.069,0.474
				c0.225,0.243,0.365,0.636,0.419,1.177c0.018,0.182,0.031,0.377,0.041,0.589c0.009,0.212,0.018,0.449,0.027,0.71
				c0.018,0.516,0.045,0.907,0.081,1.178c0.054,0.271,0.171,0.455,0.352,0.555v0.082h-2.111c-0.099-0.137-0.162-0.291-0.189-0.467
				c-0.027-0.176-0.045-0.359-0.054-0.549l-0.054-1.854c-0.018-0.379-0.113-0.677-0.284-0.894c-0.171-0.217-0.46-0.324-0.866-0.324
				h-1.042v4.087H9.721v-9.66H13.319z M12.481,21.091c0.469,0,0.83-0.108,1.082-0.331c0.252-0.222,0.379-0.593,0.379-1.115
				c0-0.894-0.451-1.34-1.353-1.34h-0.92v2.786H12.481z"/>
			<path fill="#FFFFFF" d="M22.154,18.466h-3.45v2.273h3.247v1.597h-3.247v2.598h3.586v1.598h-5.534v-9.66h5.398V18.466z"/>
			<path fill="#FFFFFF" d="M28.197,18.466h-3.45v2.273h3.248v1.597h-3.248v2.598h3.586v1.598H22.8v-9.66h5.397V18.466z"/>
		</g>
	</g>
</g>
<g id="レイヤー_7" display="none">
	<g display="inline">
		<path fill="#D71920" d="M30.008,14.164c0-7.457-6.236-13.503-13.93-13.503C8.387,0.661,2.15,6.707,2.15,14.164
			c0,6.416,4.617,12.395,10.807,13.938H12.9c0,0,1.234,0.393,1.941,1.569C15.549,30.852,16.08,32,16.08,32s0.609-1.15,1.271-2.27
			s1.903-1.629,1.903-1.629H19.2C25.391,26.559,30.008,20.58,30.008,14.164z"/>
		<g>
			<path fill="#FFFFFF" d="M13.117,7.018h-1.716v6.556H9.817V7.018H8.101V5.72h5.016V7.018z"/>
			<path fill="#FFFFFF" d="M16.436,5.72l2.08,7.854h-1.65l-0.363-1.66h-2.09l-0.363,1.66h-1.65l2.079-7.854H16.436z M16.227,10.614
				l-0.759-3.531h-0.022l-0.759,3.531H16.227z"/>
			<path fill="#FFFFFF" d="M20.494,5.72l1.012,2.541l1.001-2.541h1.728l-1.825,3.883l1.957,3.971h-1.781l-1.133-2.662l-1.122,2.662
				h-1.738l1.958-3.971L18.745,5.72H20.494z"/>
			<path fill="#FFFFFF" d="M10.734,14.72v1.298H7.929v1.849h2.64v1.297h-2.64v3.41H6.345V14.72H10.734z"/>
			<path fill="#FFFFFF" d="M14.061,14.72c0.66,0,1.173,0.167,1.54,0.5c0.367,0.334,0.55,0.842,0.55,1.523
				c0,0.528-0.106,0.959-0.319,1.293s-0.543,0.549-0.99,0.644v0.022c0.396,0.059,0.686,0.187,0.869,0.385
				c0.183,0.197,0.297,0.517,0.341,0.957c0.015,0.146,0.026,0.308,0.033,0.479s0.015,0.365,0.022,0.576
				c0.015,0.418,0.037,0.737,0.066,0.957c0.044,0.221,0.139,0.37,0.286,0.451v0.065h-1.716c-0.081-0.109-0.132-0.236-0.154-0.38
				c-0.022-0.143-0.037-0.291-0.044-0.444L14.5,20.241c-0.015-0.308-0.092-0.55-0.231-0.726c-0.14-0.177-0.374-0.265-0.704-0.265
				h-0.847v3.321h-1.584V14.72H14.061z M13.378,18.15c0.381,0,0.675-0.09,0.88-0.27c0.206-0.18,0.308-0.482,0.308-0.906
				c0-0.727-0.367-1.09-1.1-1.09h-0.748v2.266H13.378z"/>
			<path fill="#FFFFFF" d="M21.292,16.018h-2.806v1.849h2.641v1.297h-2.641v2.113h2.916v1.297h-4.5V14.72h4.389L21.292,16.018
				L21.292,16.018z"/>
			<path fill="#FFFFFF" d="M26.254,16.018h-2.807v1.849h2.641v1.297h-2.641v2.113h2.916v1.297h-4.5V14.72h4.391V16.018z"/>
		</g>
	</g>
</g>
<g id="レイヤー_3" display="none">
	<g display="inline">
		<path fill="#D71920" d="M32,24.346C32,28.572,28.572,32,24.348,32H7.653C3.427,32,0,28.572,0,24.346V7.653
			C0,3.427,3.427,0,7.653,0h16.693C28.572,0,32,3.427,32,7.653V24.346z"/>
		<g>
			<path fill="#FFFFFF" d="M14.264,22.891H9.62v-2.203h4.644v-2.305H9.62V16.18h3.322L6.603,4.281h4.305l5.288,10.847l5.39-10.847
				h4.203L19.417,16.18h3.354v2.203h-4.645v2.305h4.645v2.203h-4.645v5.594h-3.864L14.264,22.891L14.264,22.891z"/>
		</g>
	</g>
</g>
<g id="レイヤー_6" display="none">
	<g display="inline">
		<path fill="#D71920" d="M30.008,13.987c0-7.458-6.236-13.503-13.93-13.503C8.387,0.484,2.15,6.53,2.15,13.987
			c0,6.416,4.617,12.394,10.807,13.938H12.9c0,0,1.234,0.392,1.941,1.569s1.238,2.326,1.238,2.326s0.608-1.147,1.271-2.268
			c0.662-1.117,1.904-1.629,1.904-1.629h-0.055C25.391,26.381,30.008,20.402,30.008,13.987z"/>
		<g>
			<path fill="#FFFFFF" d="M14.755,21.178h-3.863v-1.833h3.863v-1.917h-3.863v-1.833h2.763L8.382,5.698h3.581l4.398,9.023
				l4.485-9.023h3.495l-5.301,9.896h2.791v1.833h-3.862v1.917h3.862v1.833h-3.862v4.652h-3.215L14.755,21.178L14.755,21.178z"/>
		</g>
	</g>
</g>
<g id="レイヤー_4" display="none">
	<g display="inline">
		<path fill="#D71920" d="M30.119,13.937c0-7.458-6.236-13.503-13.929-13.503c-7.692,0-13.929,6.045-13.929,13.503
			c0,6.417,4.617,12.393,10.807,13.938h-0.056c0,0,1.233,0.393,1.94,1.57s1.238,2.326,1.238,2.326s0.61-1.148,1.272-2.269
			c0.662-1.117,1.904-1.629,1.904-1.629h-0.056C25.502,26.33,30.119,20.354,30.119,13.937z"/>
		<g>
			<polygon fill="#FFFFFF" points="27.423,7.654 26.844,13.245 22.293,9.948 			"/>
			<polygon fill="#FFFFFF" points="5.525,21.098 6.361,15.54 10.757,19.042 			"/>
			<path fill="#FFFFFF" d="M16.468,5.442c3.708,0,6.897,2.249,8.283,5.453l1.854-0.758c-1.684-3.935-5.594-6.699-10.139-6.699
				c-4.544,0-8.453,2.765-10.136,6.699l1.856,0.758C9.571,7.69,12.762,5.442,16.468,5.442z"/>
			<path fill="#FFFFFF" d="M16.468,23.479c-3.829,0-7.104-2.398-8.411-5.771l-1.855,0.756c1.606,4.104,5.602,7.021,10.266,7.021
				c4.666,0,8.661-2.916,10.269-7.021l-1.855-0.756C23.574,21.079,20.297,23.479,16.468,23.479z"/>
		</g>
		<g>
			<path fill="#D71920" d="M28.514,13.988c0,6.719-5.447,12.167-12.167,12.167V13.988H28.514z"/>
			<path fill="#D71920" d="M16.347,1.821v12.167H4.18C4.18,7.269,9.627,1.821,16.347,1.821z"/>
		</g>
		<g>
			<circle fill="#FFFFFF" cx="11.159" cy="9.476" r="6.209"/>
			<g>
				<path fill="#D71920" d="M11.5,8.808h-0.884c-0.152,3.137-0.827,3.593-3.07,4.439l-0.77-0.989
					C9.01,11.726,9.39,11.05,9.428,8.807H7.212V7.734h7.976v1.074h-2.595v2.804c0,0.247,0.104,0.38,0.342,0.38h0.742
					c0.523,0,0.589-0.732,0.608-1.008l1.122,0.447c-0.285,1.112-0.494,1.597-1.464,1.597h-1.625c-0.438,0-0.817-0.295-0.817-0.77
					L11.5,8.808L11.5,8.808z M8.096,6.346V5.291h6.179v1.055H8.096z"/>
			</g>
		</g>
		<g>
			<circle fill="#FFFFFF" cx="21.113" cy="18.734" r="6.208"/>
			<g>
				<path fill="#D71920" d="M20.428,21.498h-1.65v-0.782h1.65v-0.819h-1.65v-0.782h1.181l-2.252-4.229h1.528l1.879,3.854
					l1.916-3.854h1.494l-2.266,4.229h1.192v0.782H21.8v0.819h1.65v0.782H21.8v1.988h-1.372V21.498z"/>
			</g>
		</g>
	</g>
</g>
<g id="レイヤー_8">
	<path fill="#D71920" d="M30.082,14.164c0-7.457-6.236-13.501-13.929-13.501c-7.692,0-13.929,6.045-13.929,13.501
		c0,6.416,4.617,12.395,10.807,13.939h-0.056c0,0,1.233,0.391,1.94,1.567C15.623,30.852,16.154,32,16.154,32s0.61-1.148,1.271-2.268
		c0.662-1.119,1.905-1.629,1.905-1.629h-0.055C25.464,26.559,30.082,20.58,30.082,14.164z"/>
	<g>
		<polygon fill="#FFD600" points="9.859,4.563 14,17.387 3.405,9.421 16.39,9.421 5.875,17.387 		"/>
		<polygon fill="#FFD600" points="26.381,14.065 27.729,18.234 24.283,15.646 28.506,15.646 25.089,18.234 		"/>
		<polygon fill="#FFD600" points="25.684,7.194 28.328,10.688 24.223,9.376 28.21,7.988 25.832,11.558 		"/>
		<polygon fill="#FFD600" points="19.797,3.368 23.977,4.683 19.871,5.993 22.312,2.55 22.443,6.835 		"/>
		<polygon fill="#FFD600" points="19.797,19.771 23.977,21.091 19.871,22.396 22.312,18.956 22.443,23.243 		"/>
	</g>
</g>
</svg>
